<svg width="494" height="179" viewBox="0 0 494 179" fill="none" xmlns="http://www.w3.org/2000/svg">
<path d="M48.6562 142H4.78125V122.875H48.6562C49.9688 122.875 51.0938 122.406 52.0312 121.469C52.9688 120.531 53.4375 119.406 53.4375 118.094C53.4375 116.734 52.9688 115.844 52.0312 115.422C51.0938 115 49.9688 114.789 48.6562 114.789H28.6875C25.3594 114.789 22.2422 114.156 19.3359 112.891C16.4297 111.625 13.8984 109.914 11.7422 107.758C9.58594 105.555 7.875 103 6.60938 100.094C5.39062 97.1875 4.78125 94.0703 4.78125 90.7422C4.78125 87.4141 5.39062 84.2969 6.60938 81.3906C7.875 78.4844 9.58594 75.9531 11.7422 73.7969C13.8984 71.6406 16.4297 69.9531 19.3359 68.7344C22.2422 67.4688 25.3594 66.8359 28.6875 66.8359H67.5703V85.9609H28.6875C27.375 85.9609 26.25 86.4297 25.3125 87.3672C24.375 88.3047 23.9062 89.4297 23.9062 90.7422C23.9062 92.1016 24.375 93.2734 25.3125 94.2578C26.25 95.1953 27.375 95.6641 28.6875 95.6641H48.6562C51.9375 95.6641 55.0312 96.2266 57.9375 97.3516C60.8438 98.4297 63.375 99.9531 65.5312 101.922C67.6875 103.891 69.3984 106.258 70.6641 109.023C71.9297 111.789 72.5625 114.812 72.5625 118.094C72.5625 121.422 71.9297 124.539 70.6641 127.445C69.3984 130.305 67.6875 132.836 65.5312 135.039C63.375 137.195 60.8438 138.906 57.9375 140.172C55.0312 141.391 51.9375 142 48.6562 142ZM102.164 170.688H82.8281V66.6953H87.4688L95.1328 75.7656C96.8672 74.125 98.7656 72.5781 100.828 71.125C102.891 69.6719 105.023 68.4297 107.227 67.3984C109.477 66.3203 111.797 65.4766 114.188 64.8672C116.578 64.2578 118.992 63.9531 121.43 63.9531C126.727 63.9531 131.695 64.9141 136.336 66.8359C141.023 68.7109 145.102 71.3828 148.57 74.8516C152.086 78.3203 154.852 82.5156 156.867 87.4375C158.883 92.3125 159.891 97.7266 159.891 103.68C159.891 109.867 158.883 115.445 156.867 120.414C154.852 125.336 152.086 129.531 148.57 133C145.102 136.422 141.023 139.047 136.336 140.875C131.695 142.703 126.727 143.617 121.43 143.617C119.742 143.617 118.055 143.43 116.367 143.055C114.727 142.68 113.086 142.188 111.445 141.578C109.852 140.922 108.258 140.195 106.664 139.398C105.117 138.602 103.617 137.781 102.164 136.938V170.688ZM140.625 103.68C140.625 100.492 140.109 97.6328 139.078 95.1016C138.094 92.5703 136.734 90.4375 135 88.7031C133.266 86.9219 131.227 85.5625 128.883 84.625C126.539 83.6875 124.055 83.2188 121.43 83.2188C118.805 83.2188 116.32 83.6875 113.977 84.625C111.68 85.5625 109.664 86.9219 107.93 88.7031C106.195 90.4375 104.812 92.5703 103.781 95.1016C102.797 97.6328 102.305 100.492 102.305 103.68C102.305 106.727 102.797 109.516 103.781 112.047C104.812 114.578 106.195 116.734 107.93 118.516C109.664 120.297 111.68 121.68 113.977 122.664C116.32 123.648 118.805 124.141 121.43 124.141C124.055 124.141 126.539 123.648 128.883 122.664C131.227 121.68 133.266 120.297 135 118.516C136.734 116.734 138.094 114.578 139.078 112.047C140.109 109.516 140.625 106.727 140.625 103.68ZM200.531 123.578C201.281 123.812 202.031 123.977 202.781 124.07C203.531 124.117 204.281 124.141 205.031 124.141C206.906 124.141 208.711 123.883 210.445 123.367C212.18 122.852 213.797 122.125 215.297 121.188C216.844 120.203 218.203 119.031 219.375 117.672C220.594 116.266 221.578 114.719 222.328 113.031L236.391 127.164C234.609 129.695 232.547 131.969 230.203 133.984C227.906 136 225.398 137.711 222.68 139.117C220.008 140.523 217.172 141.578 214.172 142.281C211.219 143.031 208.172 143.406 205.031 143.406C199.734 143.406 194.742 142.422 190.055 140.453C185.414 138.484 181.336 135.742 177.82 132.227C174.352 128.711 171.609 124.539 169.594 119.711C167.578 114.836 166.57 109.492 166.57 103.68C166.57 97.7266 167.578 92.2891 169.594 87.3672C171.609 82.4453 174.352 78.25 177.82 74.7812C181.336 71.3125 185.414 68.6172 190.055 66.6953C194.742 64.7734 199.734 63.8125 205.031 63.8125C208.172 63.8125 211.242 64.1875 214.242 64.9375C217.242 65.6875 220.078 66.7656 222.75 68.1719C225.469 69.5781 228 71.3125 230.344 73.375C232.688 75.3906 234.75 77.6641 236.531 80.1953L200.531 123.578ZM210.375 83.9922C209.484 83.6641 208.594 83.4531 207.703 83.3594C206.859 83.2656 205.969 83.2188 205.031 83.2188C202.406 83.2188 199.922 83.7109 197.578 84.6953C195.281 85.6328 193.266 86.9922 191.531 88.7734C189.844 90.5547 188.508 92.7109 187.523 95.2422C186.539 97.7266 186.047 100.539 186.047 103.68C186.047 104.383 186.07 105.18 186.117 106.07C186.211 106.961 186.328 107.875 186.469 108.812C186.656 109.703 186.867 110.57 187.102 111.414C187.336 112.258 187.641 113.008 188.016 113.664L210.375 83.9922ZM318.586 142H313.945L306.492 131.664C304.664 133.305 302.719 134.852 300.656 136.305C298.641 137.711 296.508 138.953 294.258 140.031C292.008 141.062 289.688 141.883 287.297 142.492C284.953 143.102 282.562 143.406 280.125 143.406C274.828 143.406 269.836 142.516 265.148 140.734C260.508 138.953 256.43 136.375 252.914 133C249.445 129.578 246.703 125.406 244.688 120.484C242.672 115.562 241.664 109.961 241.664 103.68C241.664 97.8203 242.672 92.4531 244.688 87.5781C246.703 82.6562 249.445 78.4375 252.914 74.9219C256.43 71.4062 260.508 68.6875 265.148 66.7656C269.836 64.7969 274.828 63.8125 280.125 63.8125C282.562 63.8125 284.977 64.1172 287.367 64.7266C289.758 65.3359 292.078 66.1797 294.328 67.2578C296.578 68.3359 298.711 69.6016 300.727 71.0547C302.789 72.5078 304.711 74.0781 306.492 75.7656L313.945 66.8359H318.586V142ZM299.25 103.68C299.25 101.055 298.734 98.5234 297.703 96.0859C296.719 93.6016 295.359 91.4219 293.625 89.5469C291.891 87.625 289.852 86.1016 287.508 84.9766C285.211 83.8047 282.75 83.2188 280.125 83.2188C277.5 83.2188 275.016 83.6641 272.672 84.5547C270.375 85.4453 268.359 86.7578 266.625 88.4922C264.938 90.2266 263.602 92.3828 262.617 94.9609C261.633 97.4922 261.141 100.398 261.141 103.68C261.141 106.961 261.633 109.891 262.617 112.469C263.602 115 264.938 117.133 266.625 118.867C268.359 120.602 270.375 121.914 272.672 122.805C275.016 123.695 277.5 124.141 280.125 124.141C282.75 124.141 285.211 123.578 287.508 122.453C289.852 121.281 291.891 119.758 293.625 117.883C295.359 115.961 296.719 113.781 297.703 111.344C298.734 108.859 299.25 106.305 299.25 103.68ZM352.617 142H333.281V36.7422H352.617V103.117L381.234 66.8359H403.312L378.352 98.1953L403.312 142H381.234L365.977 114.648L352.617 132.367V142Z" fill="white"/>
<path d="M494 102C493.988 112.605 489.77 122.772 482.271 130.271C474.772 137.77 464.605 141.988 454 142H420.267C418.605 141.998 417.012 141.337 415.838 140.163C414.663 138.988 414.002 137.395 414 135.734V102C414 91.3913 418.214 81.2172 425.716 73.7157C433.217 66.2143 443.391 62 454 62C464.609 62 474.783 66.2143 482.284 73.7157C489.786 81.2172 494 91.3913 494 102V102Z" fill="white"/>
</svg>
