<svg width="545" height="558" viewBox="0 0 545 558" fill="none" xmlns="http://www.w3.org/2000/svg">
<path opacity="0.0344828" d="M124.603 256.405C121.188 254.439 117.728 252.588 114.289 250.759C114.03 250.622 113.771 250.484 113.513 250.347C110.332 248.656 107.174 246.977 104.071 245.225C97.3622 241.437 90.9525 237.331 85.2488 232.109C82.5853 229.67 79.8251 227.274 77.0559 224.871C71.8872 220.385 66.6873 215.872 62.0261 211.001C54.9026 203.556 49.2123 195.437 47.1203 185.682C45.0571 176.062 46.8185 166.405 50.2264 156.825C52.8419 149.472 56.3944 142.244 59.8834 135.145C60.9511 132.973 62.0128 130.812 63.0398 128.665C64.1421 126.359 65.2285 124.014 66.321 121.656C69.6466 114.478 73.0285 107.178 77.0835 100.513C82.4576 91.68 88.9407 84.0965 97.8619 79.5674C106.796 75.032 116.764 76.0163 127.28 77.773C128.675 78.0061 130.08 78.2532 131.494 78.5015C140.619 80.1052 150.059 81.7643 159.087 80.09C164.253 79.1321 169.17 76.7891 173.899 73.9774C176.987 72.1421 180.049 70.0711 183.059 68.0359C184.638 66.9685 186.202 65.911 187.747 64.9024C196.87 58.9485 205.472 54.6223 214.544 57.8341C223.98 61.1747 227.902 70.6796 231.512 81.5697C231.857 82.6092 232.199 83.6604 232.542 84.7172C233.973 89.1188 235.435 93.6177 237.271 97.7742C239.552 102.941 242.452 107.684 246.696 111.185C250.991 114.728 256.28 116.699 261.874 117.978C266.327 118.997 271.046 119.591 275.662 120.173C276.83 120.32 277.993 120.466 279.142 120.619C290.686 122.147 300.86 124.278 305.819 133.112C310.626 141.675 308.955 151.258 305.121 161.363C303.444 165.781 301.378 170.24 299.306 174.712C299.014 175.342 298.722 175.973 298.43 176.603C296.082 181.689 293.798 186.783 292.209 191.747C288.669 202.799 283.709 212.945 278.658 223.278C276.592 227.505 274.51 231.765 272.503 236.13C270.683 240.09 269.336 244.415 268.113 248.77C267.733 250.122 267.366 251.473 267 252.819C266.181 255.833 265.37 258.818 264.442 261.714C261.76 270.083 258.206 277.331 251.164 281.466C243.882 285.741 235.54 285.51 226.652 283.963C223.423 283.401 220.164 282.674 216.875 281.94C215.637 281.664 214.394 281.387 213.148 281.117C208.612 280.136 204.046 279.261 199.575 278.945C196.141 278.702 192.715 278.567 189.316 278.44C189.087 278.432 188.858 278.423 188.629 278.415C185.458 278.297 182.311 278.18 179.181 277.982C172.47 277.558 165.882 276.767 159.429 274.827C153.131 272.933 147.346 270.017 141.667 266.722C138.914 265.124 136.194 263.443 133.452 261.748L133.193 261.588C130.367 259.841 127.516 258.083 124.603 256.405Z" stroke="url(#paint0_linear)" stroke-width="2"/>
<path opacity="0.0689655" d="M131.9 249.442C128.67 247.185 125.384 245.041 122.118 242.919C121.872 242.759 121.626 242.6 121.381 242.44C118.359 240.478 115.36 238.531 112.421 236.515C106.068 232.157 100.041 227.507 94.8137 221.808C92.3728 219.146 89.8319 216.519 87.2828 213.884C82.5247 208.965 77.738 204.016 73.5191 198.756C67.0715 190.719 62.1105 182.135 60.8766 172.235C59.6597 162.471 62.256 153.005 66.486 143.758C69.7323 136.662 73.9014 129.77 77.9958 123.003C79.2487 120.932 80.4946 118.872 81.705 116.822C83.0039 114.622 84.2906 112.38 85.5845 110.126C89.5231 103.265 93.5283 96.2878 98.1488 90.0016C104.272 81.6705 111.392 74.6808 120.674 70.9465C129.969 67.207 139.813 69.0563 150.136 71.7229C151.505 72.0767 152.884 72.4453 154.27 72.8159C163.221 75.2088 172.481 77.6843 181.621 76.8033C186.85 76.2993 191.952 74.3936 196.909 72.0049C200.144 70.4456 203.376 68.6495 206.552 66.8843C208.217 65.9586 209.868 65.0414 211.495 64.1714C221.102 59.0352 230.049 55.4752 238.806 59.4654C247.915 63.6157 250.994 73.4263 253.641 84.5896C253.894 85.6552 254.143 86.7322 254.393 87.8149C255.434 92.3244 256.499 96.9337 257.965 101.234C259.788 106.581 262.263 111.558 266.185 115.415C270.156 119.32 275.253 121.743 280.714 123.506C285.061 124.909 289.71 125.912 294.258 126.894C295.409 127.142 296.554 127.389 297.686 127.641C309.053 130.17 319.002 133.18 323.173 142.412C327.215 151.361 324.715 160.763 320.015 170.494C317.96 174.75 315.513 179.012 313.059 183.286C312.713 183.888 312.367 184.491 312.022 185.094C309.239 189.956 306.52 194.831 304.504 199.637C300.015 210.339 294.189 220.014 288.257 229.867C285.83 233.899 283.384 237.96 281.005 242.134C278.847 245.921 277.128 250.112 275.53 254.344C275.033 255.657 274.55 256.972 274.068 258.28C272.99 261.212 271.922 264.115 270.745 266.918C267.343 275.021 263.172 281.933 255.796 285.438C248.169 289.062 239.878 288.105 231.16 285.79C227.992 284.948 224.809 283.94 221.596 282.922C220.386 282.539 219.173 282.155 217.954 281.777C213.521 280.405 209.049 279.135 204.623 278.43C201.223 277.889 197.821 277.456 194.446 277.033C194.219 277.005 193.992 276.976 193.765 276.948C190.616 276.554 187.492 276.163 184.39 275.693C177.742 274.687 171.248 273.324 164.988 270.829C158.879 268.394 153.371 264.984 148.001 261.207C145.397 259.375 142.834 257.464 140.25 255.536L140.006 255.354C137.343 253.367 134.656 251.367 131.9 249.442Z" stroke="url(#paint1_linear)" stroke-width="2"/>
<path opacity="0.103448" d="M139.777 243.141C136.756 240.612 133.669 238.189 130.6 235.79C130.369 235.61 130.138 235.43 129.908 235.249C127.069 233.032 124.25 230.83 121.499 228.566C115.549 223.67 109.95 218.514 105.24 212.38C103.04 209.516 100.738 206.678 98.4283 203.83C94.1172 198.515 89.7799 193.167 86.0354 187.56C80.3129 178.992 76.119 170.008 75.7526 160.038C75.3913 150.206 78.8027 141.002 83.8225 132.159C87.675 125.372 92.4288 118.87 97.0975 112.485C98.5262 110.531 99.9468 108.588 101.331 106.651C102.817 104.572 104.294 102.452 105.78 100.319C110.301 93.8272 114.899 87.2257 120.05 81.3661C126.876 73.6003 134.578 67.2578 144.15 64.3467C153.735 61.4315 163.381 64.1318 173.432 67.6879C174.766 68.1598 176.107 68.6471 177.456 69.137C186.164 72.301 195.173 75.5741 204.355 75.4931C209.608 75.4467 214.857 73.993 220.003 72.0454C223.362 70.774 226.738 69.2664 230.055 67.7847C231.795 67.0077 233.519 66.2378 235.216 65.5129C245.234 61.2336 254.457 58.4668 262.833 63.2051C271.546 68.1336 273.758 78.1752 275.422 89.5267C275.581 90.6103 275.735 91.7048 275.89 92.8053C276.535 97.3884 277.194 102.073 278.279 106.485C279.629 111.97 281.661 117.144 285.232 121.329C288.847 125.564 293.714 128.423 299 130.654C303.209 132.431 307.752 133.835 312.198 135.21C313.323 135.558 314.442 135.904 315.548 136.253C326.651 139.763 336.3 143.629 339.65 153.19C342.897 162.457 339.587 171.604 334.057 180.889C331.638 184.95 328.829 188.982 326.012 193.026C325.615 193.596 325.218 194.166 324.821 194.737C321.625 199.338 318.492 203.957 316.064 208.57C310.66 218.839 304.013 227.97 297.245 237.269C294.475 241.073 291.685 244.906 288.952 248.857C286.471 252.441 284.394 256.466 282.433 260.542C281.824 261.808 281.227 263.075 280.634 264.336C279.304 267.163 277.987 269.962 276.57 272.652C272.475 280.428 267.717 286.949 260.064 289.799C252.15 292.745 243.974 291.068 235.491 288.002C232.408 286.887 229.325 285.605 226.213 284.312C225.042 283.825 223.866 283.336 222.685 282.854C218.389 281.1 214.044 279.445 209.697 278.357C206.356 277.522 203.006 276.794 199.68 276.079C199.456 276.031 199.233 275.983 199.009 275.935C195.906 275.268 192.828 274.606 189.779 273.868C183.244 272.285 176.893 270.362 170.875 267.331C165.001 264.372 159.811 260.496 154.791 256.265C152.357 254.213 149.97 252.085 147.564 249.94L147.337 249.737C144.857 247.526 142.355 245.299 139.777 243.141Z" stroke="url(#paint2_linear)" stroke-width="2"/>
<path opacity="0.137931" d="M148.173 237.551C145.383 234.768 142.52 232.085 139.672 229.428C139.457 229.229 139.243 229.029 139.029 228.829C136.394 226.372 133.778 223.933 131.234 221.438C125.735 216.043 120.606 210.417 116.448 203.897C114.507 200.852 112.461 197.824 110.408 194.785C106.576 189.115 102.722 183.41 99.48 177.498C94.526 168.463 91.1311 159.148 91.6351 149.184C92.1321 139.357 96.3326 130.486 102.104 122.114C106.533 115.689 111.836 109.626 117.043 103.672C118.637 101.85 120.221 100.039 121.769 98.2296C123.431 96.2882 125.087 94.3043 126.753 92.3092C131.823 86.2363 136.979 80.0606 142.621 74.6722C150.098 67.531 158.323 61.8838 168.112 59.818C177.915 57.7493 187.289 61.2801 196.992 65.6986C198.279 66.2849 199.573 66.8873 200.874 67.4929C209.273 71.4038 217.962 75.4497 227.116 76.1692C232.353 76.5808 237.709 75.5901 243.005 74.0984C246.463 73.1247 249.957 71.917 253.391 70.7301C255.192 70.1077 256.976 69.491 258.73 68.9167C269.083 65.5269 278.512 63.5744 286.443 69.0247C294.693 74.6938 296.022 84.89 296.69 96.3434C296.754 97.4366 296.812 98.5405 296.87 99.6502C297.113 104.272 297.361 108.996 298.058 113.486C298.925 119.068 300.498 124.399 303.691 128.879C306.923 133.413 311.522 136.686 316.594 139.369C320.632 141.506 325.036 143.301 329.344 145.058C330.435 145.502 331.52 145.945 332.591 146.389C343.345 150.854 352.621 155.545 355.125 165.362C357.552 174.877 353.457 183.701 347.139 192.469C344.376 196.303 341.226 200.075 338.067 203.858C337.622 204.391 337.176 204.925 336.732 205.459C333.147 209.763 329.623 214.092 326.802 218.476C320.523 228.235 313.106 236.752 305.553 245.425C302.463 248.974 299.349 252.549 296.282 256.246C293.498 259.6 291.078 263.43 288.769 267.319C288.052 268.527 287.348 269.737 286.646 270.942C285.075 273.642 283.519 276.315 281.873 278.872C277.116 286.262 271.808 292.343 263.935 294.514C255.795 296.76 247.797 294.377 239.613 290.583C236.639 289.204 233.679 287.658 230.692 286.098C229.567 285.511 228.439 284.922 227.305 284.338C223.177 282.217 218.994 280.189 214.757 278.727C211.503 277.603 208.228 276.587 204.978 275.584C204.759 275.517 204.54 275.449 204.321 275.382C201.289 274.447 198.28 273.52 195.307 272.519C188.935 270.373 182.775 267.903 177.044 264.359C171.451 260.9 166.618 256.586 161.986 251.933C159.74 249.677 157.548 247.35 155.338 245.002L155.129 244.781C152.851 242.362 150.553 239.925 148.173 237.551Z" stroke="url(#paint3_linear)" stroke-width="2"/>
<path opacity="0.172414" d="M157.024 232.714C154.488 229.698 151.869 226.776 149.263 223.881C149.067 223.663 148.871 223.446 148.675 223.228C146.264 220.551 143.871 217.893 141.554 215.186C136.546 209.332 131.927 203.281 128.353 196.423C126.684 193.22 124.91 190.025 123.13 186.82C119.807 180.837 116.464 174.817 113.75 168.645C109.603 159.213 107.033 149.637 108.403 139.755C109.755 130.01 114.712 121.538 121.192 113.701C126.164 107.686 131.975 102.109 137.681 96.6314C139.427 94.9553 141.164 93.2885 142.864 91.6214C144.688 89.8322 146.511 88.0002 148.344 86.1578C153.924 80.5499 159.599 74.8471 165.689 69.971C173.76 63.5086 182.446 58.5997 192.378 57.395C202.324 56.1886 211.354 60.5229 220.635 65.7703C221.867 66.4666 223.103 67.1794 224.346 67.8961C232.372 72.5242 240.676 77.312 249.732 78.8265C254.914 79.693 260.335 79.1729 265.741 78.1485C269.27 77.4797 272.857 76.5812 276.381 75.6981C278.23 75.235 280.061 74.7762 281.858 74.357C292.467 71.8824 302.03 70.7591 309.456 76.88C317.181 83.2464 317.616 93.5196 317.283 104.988C317.252 106.082 317.213 107.187 317.175 108.298C317.014 112.923 316.849 117.651 317.152 122.184C317.529 127.82 318.631 133.269 321.422 138.01C324.247 142.809 328.543 146.469 333.361 149.585C337.197 152.065 341.428 154.237 345.567 156.363C346.615 156.901 347.657 157.436 348.685 157.972C359.01 163.357 367.842 168.839 369.48 178.836C371.069 188.527 366.22 196.961 359.162 205.144C356.075 208.723 352.609 212.206 349.132 215.699C348.642 216.192 348.152 216.684 347.662 217.177C343.716 221.154 339.828 225.159 336.636 229.28C329.531 238.455 321.399 246.293 313.119 254.274C309.731 257.541 306.318 260.831 302.94 264.246C299.875 267.345 297.13 270.949 294.491 274.623C293.671 275.763 292.864 276.907 292.06 278.047C290.26 280.599 288.477 283.127 286.614 285.53C281.232 292.477 275.413 298.073 267.381 299.55C259.076 301.077 251.316 298.007 243.494 293.513C240.652 291.881 237.838 290.083 234.998 288.268C233.929 287.585 232.856 286.9 231.777 286.22C227.85 283.747 223.859 281.362 219.766 279.536C216.622 278.133 213.448 276.835 210.298 275.553C210.086 275.467 209.874 275.381 209.662 275.295C206.722 274.099 203.805 272.913 200.931 271.656C194.77 268.963 188.849 265.966 183.449 261.936C178.178 258.003 173.74 253.284 169.531 248.245C167.49 245.802 165.509 243.292 163.512 240.761L163.323 240.522C161.265 237.914 159.188 235.287 157.024 232.714Z" stroke="url(#paint4_linear)" stroke-width="2"/>
<path opacity="0.206897" d="M166.263 228.666C163.999 225.441 161.645 222.302 159.301 219.191C159.125 218.957 158.949 218.723 158.773 218.489C156.604 215.612 154.452 212.756 152.38 209.857C147.9 203.589 143.827 197.158 140.864 190.015C139.481 186.679 137.992 183.341 136.498 179.993C133.709 173.743 130.904 167.455 128.738 161.07C125.428 151.313 123.702 141.549 125.929 131.824C128.125 122.233 133.802 114.226 140.94 106.984C146.417 101.425 152.692 96.3754 158.854 91.4161C160.74 89.8985 162.615 88.3894 164.454 86.8768C166.427 85.2535 168.402 83.5872 170.389 81.9117C176.437 76.8115 182.587 71.6249 189.079 67.2981C197.682 61.5638 206.763 57.4306 216.762 57.0961C226.776 56.7612 235.394 61.866 244.182 67.9023C245.348 68.7033 246.518 69.5212 247.693 70.3435C255.286 75.6535 263.141 81.1468 272.031 83.4448C277.117 84.7596 282.563 84.714 288.038 84.1647C291.612 83.806 295.263 83.2235 298.851 82.651C300.733 82.3507 302.597 82.0533 304.424 81.7923C315.208 80.2517 324.833 79.9662 331.697 86.711C338.837 93.7264 338.375 103.998 337.045 115.394C336.918 116.482 336.783 117.579 336.648 118.682C336.084 123.276 335.508 127.971 335.415 132.514C335.299 138.161 335.922 143.685 338.289 148.651C340.685 153.678 344.646 157.699 349.175 161.223C352.78 164.028 356.805 166.561 360.743 169.039C361.74 169.666 362.732 170.29 363.709 170.914C373.525 177.178 381.845 183.409 382.607 193.511C383.344 203.303 377.78 211.282 370.035 218.819C366.648 222.115 362.891 225.283 359.123 228.46C358.592 228.908 358.061 229.356 357.53 229.805C353.252 233.422 349.03 237.072 345.491 240.9C337.613 249.421 328.83 256.52 319.885 263.75C316.225 266.708 312.538 269.688 308.875 272.796C305.552 275.617 302.503 278.967 299.554 282.397C298.638 283.462 297.734 284.531 296.834 285.596C294.818 287.982 292.822 290.344 290.757 292.576C284.789 299.028 278.505 304.095 270.375 304.867C261.969 305.664 254.506 301.929 247.105 296.771C244.416 294.897 241.769 292.861 239.098 290.805C238.093 290.032 237.084 289.256 236.068 288.484C232.372 285.678 228.604 282.955 224.686 280.779C221.676 279.108 218.627 277.538 215.6 275.986C215.397 275.882 215.193 275.777 214.989 275.673C212.165 274.226 209.363 272.79 206.609 271.288C200.706 268.068 195.069 264.566 190.041 260.081C185.133 255.703 181.123 250.615 177.369 245.229C175.548 242.617 173.794 239.944 172.025 237.249L171.858 236.994C170.035 234.217 168.194 231.418 166.263 228.666Z" stroke="url(#paint5_linear)" stroke-width="2"/>
<path opacity="0.241379" d="M175.82 225.44C173.846 222.03 171.774 218.697 169.71 215.394C169.555 215.145 169.4 214.897 169.245 214.649C167.336 211.594 165.44 208.561 163.629 205.492C159.713 198.857 156.215 192.096 153.886 184.722C152.799 181.278 151.606 177.823 150.41 174.357C148.177 167.888 145.93 161.38 144.329 154.83C141.882 144.821 141.014 134.944 144.079 125.451C147.103 116.088 153.456 108.606 161.198 102.013C167.139 96.9529 173.83 92.4693 180.401 88.066C182.412 86.7186 184.411 85.3786 186.375 84.032C188.482 82.5868 190.595 81.0991 192.721 79.6031C199.19 75.0494 205.768 70.4186 212.613 66.674C221.683 61.7114 231.09 58.3853 241.08 58.9236C251.085 59.4627 259.225 65.2992 267.454 72.0785C268.546 72.9781 269.639 73.8948 270.739 74.8164C277.84 80.7679 285.186 86.9249 293.842 89.989C298.794 91.7421 304.224 92.1714 309.725 92.1013C313.317 92.0555 317.005 91.7933 320.629 91.5357C322.53 91.4006 324.413 91.2668 326.256 91.166C337.133 90.5713 346.746 91.1257 352.996 98.4431C359.498 106.054 358.142 116.247 355.824 127.483C355.602 128.555 355.373 129.637 355.142 130.724C354.18 135.251 353.197 139.878 352.708 144.396C352.101 150.011 352.24 155.568 354.165 160.722C356.114 165.938 359.709 170.289 363.913 174.194C367.26 177.303 371.05 180.177 374.757 182.989C375.695 183.701 376.628 184.409 377.548 185.115C386.781 192.211 394.526 199.144 394.404 209.274C394.285 219.092 388.046 226.556 379.674 233.39C376.013 236.378 371.994 239.207 367.964 242.043C367.396 242.443 366.827 242.843 366.26 243.244C361.683 246.474 357.158 249.743 353.3 253.247C344.709 261.049 335.34 267.356 325.799 273.779C321.896 276.407 317.963 279.054 314.043 281.831C310.487 284.351 307.158 287.423 303.92 290.583C302.915 291.564 301.922 292.55 300.933 293.533C298.716 295.734 296.521 297.913 294.27 299.957C287.762 305.864 281.061 310.364 272.894 310.424C264.45 310.486 257.341 306.114 250.418 300.331C247.902 298.23 245.444 295.97 242.962 293.69C242.028 292.832 241.09 291.971 240.146 291.114C236.708 287.996 233.192 284.955 229.478 282.446C226.625 280.518 223.725 278.689 220.845 276.879C220.651 276.758 220.457 276.636 220.264 276.514C217.576 274.826 214.91 273.152 212.297 271.415C206.698 267.693 201.387 263.714 196.769 258.807C192.261 254.018 188.71 248.6 185.439 242.907C183.854 240.147 182.339 237.331 180.812 234.492L180.667 234.224C179.094 231.298 177.504 228.349 175.82 225.44Z" stroke="url(#paint6_linear)" stroke-width="2"/>
<path opacity="0.275862" d="M185.621 223.058C183.952 219.489 182.178 215.989 180.411 212.518C180.278 212.257 180.145 211.996 180.012 211.735C178.376 208.525 176.752 205.339 175.215 202.124C171.892 195.173 168.997 188.133 167.32 180.584C166.537 177.058 165.65 173.513 164.76 169.955C163.099 163.316 161.428 156.637 160.404 149.973C158.839 139.789 158.835 129.874 162.716 120.683C166.544 111.62 173.526 104.72 181.812 98.8267C188.172 94.3038 195.228 90.4204 202.158 86.6065C204.279 85.4395 206.387 84.2789 208.461 83.1085C210.686 81.8525 212.921 80.5547 215.168 79.2496C222.01 75.277 228.967 71.2372 236.112 68.1034C245.58 63.9502 255.241 61.4566 265.146 62.8636C275.066 64.2726 282.667 70.7964 290.273 78.2671C291.282 79.2583 292.292 80.2669 293.307 81.2808C299.862 87.8286 306.644 94.6024 314.999 98.4093C319.78 100.587 325.152 101.488 330.639 101.898C334.22 102.165 337.917 102.226 341.55 102.285C343.455 102.316 345.343 102.347 347.187 102.407C358.076 102.762 367.603 104.152 373.192 111.987C379.006 120.136 376.767 130.171 373.478 141.163C373.164 142.212 372.841 143.269 372.516 144.332C371.163 148.758 369.781 153.282 368.9 157.739C367.805 163.281 367.46 168.829 368.929 174.131C370.415 179.497 373.617 184.145 377.465 188.401C380.529 191.79 384.053 194.983 387.501 198.107C388.374 198.898 389.242 199.685 390.096 200.469C398.675 208.343 405.787 215.924 404.783 226.005C403.809 235.776 396.943 242.667 388.007 248.745C384.099 251.403 379.849 253.87 375.587 256.345C374.986 256.694 374.385 257.043 373.785 257.392C368.944 260.212 364.152 263.074 360.002 266.228C350.764 273.252 340.881 278.718 330.817 284.285C326.699 286.563 322.551 288.857 318.404 291.282C314.641 293.482 311.057 296.253 307.557 299.118C306.47 300.008 305.394 300.904 304.323 301.797C301.923 303.796 299.547 305.776 297.126 307.616C290.128 312.933 283.06 316.832 274.919 316.18C266.502 315.505 259.801 310.531 253.409 304.166C251.086 301.853 248.833 299.389 246.56 296.901C245.704 295.965 244.845 295.025 243.978 294.089C240.826 290.683 237.588 287.347 234.107 284.524C231.433 282.355 228.703 280.28 225.992 278.226C225.809 278.088 225.627 277.95 225.445 277.812C222.914 275.896 220.404 273.995 217.953 272.038C212.699 267.842 207.756 263.415 203.582 258.124C199.51 252.961 196.444 247.254 193.682 241.297C192.343 238.409 191.079 235.472 189.805 232.511L189.685 232.231C188.372 229.179 187.045 226.104 185.621 223.058Z" stroke="url(#paint7_linear)" stroke-width="2"/>
<path opacity="0.310345" d="M195.593 221.54C194.241 217.839 192.779 214.197 191.321 210.586C191.211 210.314 191.101 210.043 190.992 209.771C189.642 206.431 188.302 203.115 187.051 199.778C184.347 192.564 182.076 185.299 181.063 177.632C180.591 174.052 180.016 170.442 179.44 166.821C178.364 160.063 177.281 153.263 176.842 146.535C176.17 136.253 177.03 126.376 181.698 117.558C186.301 108.863 193.857 102.598 202.626 97.4493C209.356 93.498 216.724 90.2443 223.959 87.0489C226.174 86.0711 228.375 85.0988 230.543 84.1135C232.869 83.0562 235.209 81.9581 237.561 80.8539C244.723 77.4927 252.006 74.0746 259.396 71.5754C269.191 68.2633 279.032 66.6212 288.777 68.8861C298.536 71.1543 305.54 78.3157 312.466 86.4209C313.385 87.4963 314.303 88.5891 315.226 89.6876C321.185 96.7818 327.351 104.121 335.343 108.641C339.915 111.228 345.188 112.594 350.618 113.48C354.163 114.058 357.84 114.441 361.454 114.816C363.35 115.013 365.228 115.208 367.06 115.429C377.876 116.732 387.246 118.948 392.131 127.239C397.212 135.864 394.107 145.666 389.872 156.329C389.468 157.347 389.054 158.372 388.638 159.402C386.905 163.693 385.133 168.08 383.867 172.444C382.294 177.868 381.466 183.365 382.467 188.775C383.48 194.25 386.265 199.159 389.728 203.735C392.484 207.378 395.717 210.866 398.879 214.279C399.68 215.143 400.476 216.002 401.259 216.858C409.119 225.449 415.543 233.621 413.664 243.576C411.842 253.225 404.402 259.493 394.97 264.768C390.845 267.075 386.396 269.163 381.935 271.257C381.306 271.552 380.677 271.847 380.048 272.143C374.98 274.53 369.956 276.963 365.548 279.744C355.732 285.936 345.411 290.52 334.9 295.188C330.599 297.099 326.267 299.023 321.924 301.077C317.984 302.941 314.172 305.389 310.436 307.938C309.276 308.729 308.126 309.529 306.981 310.324C304.416 312.107 301.876 313.872 299.304 315.494C291.869 320.181 284.488 323.449 276.435 322.09C268.109 320.685 261.867 315.145 256.053 308.247C253.941 305.741 251.912 303.089 249.864 300.413C249.093 299.406 248.319 298.395 247.537 297.386C244.693 293.719 241.758 290.114 238.537 286.998C236.062 284.604 233.524 282.299 231.002 280.017C230.832 279.863 230.662 279.71 230.493 279.556C228.139 277.427 225.804 275.315 223.533 273.151C218.664 268.513 214.126 263.672 210.43 258.038C206.822 252.539 204.266 246.587 202.033 240.412C200.951 237.419 199.948 234.383 198.937 231.322L198.842 231.032C197.8 227.878 196.746 224.698 195.593 221.54Z" stroke="url(#paint8_linear)" stroke-width="2"/>
<path opacity="0.344828" d="M205.659 220.897C204.635 217.092 203.496 213.337 202.358 209.612C202.272 209.332 202.187 209.052 202.101 208.772C201.048 205.327 200.002 201.906 199.046 198.473C196.981 191.051 195.352 183.615 195.012 175.889C194.853 172.282 194.595 168.636 194.336 164.978C193.853 158.152 193.368 151.284 193.516 144.543C193.743 134.242 195.461 124.477 200.879 116.1C206.223 107.838 214.296 102.256 223.481 97.8912C230.529 94.5415 238.152 91.9423 245.639 89.3897C247.93 88.6086 250.208 87.8319 252.454 87.0393C254.863 86.1887 257.289 85.2987 259.729 84.4037C267.157 81.6795 274.71 78.9092 282.29 77.0636C292.336 74.6177 302.283 73.8396 311.793 76.9453C321.317 80.0553 327.67 87.7999 333.864 96.4779C334.685 97.6294 335.505 98.7979 336.328 99.9728C341.647 107.559 347.149 115.408 354.717 120.608C359.047 123.583 364.18 125.403 369.513 126.759C372.993 127.644 376.624 128.346 380.191 129.035C382.062 129.396 383.916 129.754 385.722 130.134C396.383 132.375 405.524 135.398 409.668 144.084C413.978 153.119 410.03 162.613 404.883 172.866C404.391 173.845 403.89 174.83 403.385 175.82C401.285 179.944 399.137 184.159 397.496 188.396C395.456 193.663 394.152 199.067 394.678 204.544C395.21 210.086 397.556 215.22 400.607 220.08C403.035 223.949 405.952 227.706 408.805 231.381C409.527 232.312 410.245 233.237 410.95 234.157C418.032 243.401 423.719 252.102 420.979 261.855C418.324 271.309 410.365 276.904 400.51 281.337C396.2 283.276 391.586 284.968 386.959 286.665C386.306 286.904 385.654 287.143 385.002 287.383C379.745 289.319 374.529 291.306 369.894 293.692C359.577 299.004 348.895 302.672 338.017 306.406C333.566 307.934 329.083 309.474 324.577 311.142C320.49 312.655 316.479 314.761 312.535 316.975C311.31 317.662 310.095 318.358 308.885 319.051C306.174 320.604 303.49 322.141 300.787 323.532C292.972 327.553 285.334 330.166 277.43 328.11C269.258 325.984 263.523 319.922 258.332 312.544C256.446 309.863 254.656 307.044 252.849 304.2C252.169 303.129 251.486 302.054 250.795 300.982C248.282 297.081 245.672 293.233 242.735 289.849C240.478 287.248 238.15 284.73 235.837 282.237C235.681 282.069 235.525 281.902 235.37 281.734C233.21 279.408 231.068 277.1 228.994 274.747C224.549 269.702 220.449 264.484 217.258 258.549C214.144 252.757 212.116 246.604 210.43 240.258C209.613 237.182 208.879 234.07 208.138 230.933L208.068 230.636C207.305 227.403 206.533 224.143 205.659 220.897Z" stroke="url(#paint9_linear)" stroke-width="2"/>
<path opacity="0.37931" d="M215.743 221.133C215.054 217.254 214.247 213.414 213.438 209.604C213.377 209.317 213.316 209.03 213.255 208.744C212.506 205.22 211.762 201.722 211.11 198.219C209.699 190.645 208.725 183.095 209.059 175.369C209.215 171.761 209.276 168.107 209.337 164.441C209.451 157.598 209.566 150.714 210.301 144.012C211.425 133.769 213.987 124.191 220.115 116.318C226.158 108.554 234.688 103.697 244.217 100.149C251.531 97.4263 259.352 95.5015 267.033 93.6111C269.383 93.0327 271.72 92.4574 274.026 91.8636C276.5 91.2262 278.995 90.5511 281.504 89.8722C289.14 87.8056 296.906 85.7041 304.618 84.5263C314.839 82.9653 324.816 83.057 334.02 86.9798C343.236 90.9081 348.89 99.1769 354.303 108.362C355.022 109.58 355.736 110.816 356.454 112.058C361.091 120.079 365.889 128.377 372.974 134.217C377.028 137.558 381.984 139.819 387.178 141.635C390.568 142.82 394.123 143.835 397.617 144.832C399.449 145.356 401.265 145.874 403.031 146.409C413.456 149.571 422.299 153.38 425.67 162.393C429.176 171.769 424.416 180.883 418.395 190.649C417.82 191.581 417.234 192.519 416.645 193.461C414.193 197.386 411.687 201.399 409.683 205.476C407.191 210.545 405.421 215.815 405.468 221.316C405.515 226.885 407.405 232.203 410.02 237.31C412.102 241.376 414.68 245.373 417.202 249.283C417.84 250.273 418.475 251.257 419.097 252.236C425.346 262.062 430.254 271.225 426.674 280.702C423.204 289.888 414.789 294.768 404.584 298.326C400.122 299.882 395.378 301.165 390.621 302.453C389.95 302.634 389.279 302.815 388.609 302.998C383.203 304.468 377.833 305.992 373.009 307.965C362.267 312.359 351.307 315.081 340.145 317.853C335.578 318.987 330.977 320.13 326.343 321.399C322.14 322.551 317.961 324.299 313.838 326.161C312.558 326.739 311.287 327.326 310.021 327.911C307.185 329.221 304.378 330.519 301.563 331.669C293.428 334.994 285.591 336.931 277.897 334.194C269.941 331.364 264.756 324.825 260.228 317.022C258.583 314.187 257.045 311.223 255.493 308.232C254.909 307.106 254.322 305.976 253.728 304.847C251.564 300.742 249.299 296.682 246.668 293.054C244.646 290.267 242.547 287.556 240.46 284.87C240.319 284.69 240.179 284.509 240.038 284.328C238.09 281.823 236.157 279.337 234.296 276.812C230.307 271.399 226.678 265.844 224.016 259.653C221.419 253.611 219.935 247.306 218.808 240.837C218.262 237.701 217.802 234.537 217.338 231.347L217.294 231.045C216.816 227.758 216.33 224.444 215.743 221.133Z" stroke="url(#paint10_linear)" stroke-width="2"/>
<path opacity="0.413793" d="M225.768 222.248C225.42 218.323 224.951 214.427 224.476 210.561C224.441 210.27 224.405 209.979 224.369 209.689C223.93 206.113 223.494 202.564 223.149 199.017C222.404 191.348 222.091 183.743 223.098 176.075C223.568 172.495 223.947 168.86 224.327 165.213C225.037 158.406 225.751 151.558 227.068 144.945C229.081 134.84 232.468 125.522 239.259 118.213C245.956 111.005 254.876 106.909 264.678 104.206C272.202 102.131 280.16 100.895 287.977 99.681C290.368 99.3096 292.747 98.9403 295.096 98.5496C297.616 98.1303 300.16 97.6752 302.719 97.2175C310.506 95.8244 318.425 94.4078 326.211 93.9066C336.529 93.2423 346.46 94.2031 355.287 98.9132C364.126 103.63 369.037 112.36 373.63 121.982C374.239 123.258 374.843 124.551 375.45 125.851C379.371 134.246 383.426 142.931 389.976 149.366C393.723 153.048 398.463 155.731 403.479 157.993C406.753 159.469 410.206 160.79 413.6 162.089C415.38 162.769 417.143 163.444 418.856 164.131C428.966 168.189 437.443 172.754 440.016 182.028C442.691 191.673 437.155 200.338 430.305 209.542C429.651 210.42 428.986 211.303 428.318 212.191C425.533 215.887 422.686 219.666 420.334 223.553C417.41 228.386 415.188 233.481 414.755 238.966C414.316 244.517 415.735 249.979 417.896 255.295C419.615 259.527 421.835 263.734 424.006 267.849C424.556 268.89 425.103 269.926 425.637 270.955C431.006 281.288 435.097 290.845 430.705 299.974C426.448 308.823 417.639 312.951 407.163 315.606C402.582 316.767 397.744 317.632 392.893 318.499C392.209 318.621 391.525 318.744 390.841 318.867C385.328 319.861 379.845 320.911 374.867 322.456C363.784 325.896 352.628 327.653 341.267 329.442C336.618 330.174 331.935 330.911 327.209 331.772C322.92 332.552 318.605 333.93 314.336 335.425C313.011 335.889 311.693 336.364 310.381 336.836C307.442 337.894 304.532 338.942 301.628 339.842C293.234 342.446 285.258 343.692 277.831 340.295C270.153 336.783 265.557 329.816 261.727 321.649C260.335 318.681 259.061 315.595 257.776 312.479C257.292 311.307 256.806 310.13 256.312 308.954C254.514 304.676 252.612 300.433 250.307 296.59C248.536 293.637 246.681 290.754 244.835 287.896C244.711 287.704 244.587 287.512 244.463 287.32C242.74 284.654 241.031 282.009 239.398 279.332C235.896 273.592 232.765 267.741 230.653 261.342C228.591 255.097 227.663 248.686 227.104 242.144C226.834 238.972 226.651 235.78 226.467 232.562L226.449 232.257C226.259 228.941 226.065 225.597 225.768 222.248Z" stroke="url(#paint11_linear)" stroke-width="2"/>
<path opacity="0.448276" d="M235.657 224.232C235.653 220.291 235.525 216.369 235.39 212.477C235.379 212.184 235.369 211.891 235.359 211.599C235.233 207.998 235.108 204.424 235.074 200.861C235 193.157 235.351 185.553 237.022 178.002C237.802 174.476 238.496 170.888 239.193 167.288C240.494 160.569 241.802 153.809 243.69 147.337C246.576 137.445 250.762 128.458 258.164 121.768C265.464 115.172 274.707 111.869 284.708 110.03C292.383 108.619 300.42 108.081 308.312 107.553C310.727 107.392 313.129 107.231 315.502 107.047C318.05 106.849 320.624 106.617 323.212 106.384C331.092 105.675 339.104 104.954 346.904 105.133C357.241 105.371 367.05 107.193 375.433 112.655C383.827 118.124 387.959 127.249 391.696 137.234C392.191 138.559 392.68 139.9 393.172 141.248C396.346 149.952 399.629 158.958 405.593 165.939C409.005 169.933 413.493 173.02 418.292 175.71C421.426 177.466 424.75 179.083 428.018 180.672C429.732 181.505 431.429 182.331 433.076 183.165C442.793 188.089 450.841 193.375 452.595 202.838C454.42 212.68 448.15 220.829 440.524 229.401C439.796 230.219 439.056 231.04 438.313 231.866C435.217 235.306 432.052 238.822 429.37 242.49C426.035 247.049 423.378 251.932 422.468 257.357C421.547 262.849 422.485 268.414 424.174 273.899C425.518 278.264 427.363 282.648 429.167 286.937C429.624 288.022 430.078 289.102 430.521 290.174C434.969 300.935 438.211 310.812 433.04 319.524C428.028 327.968 418.893 331.312 408.226 333.044C403.561 333.801 398.666 334.241 393.757 334.683C393.065 334.745 392.373 334.807 391.681 334.87C386.103 335.38 380.55 335.948 375.456 337.054C364.115 339.515 352.848 340.292 341.374 341.084C336.679 341.408 331.95 341.735 327.167 342.18C322.827 342.584 318.408 343.58 314.024 344.698C312.664 345.045 311.31 345.402 309.962 345.758C306.941 346.556 303.951 347.346 300.98 347.991C292.391 349.852 284.337 350.399 277.234 346.367C269.891 342.199 265.92 334.859 262.816 326.389C261.688 323.311 260.688 320.125 259.679 316.91C259.299 315.699 258.918 314.485 258.528 313.27C257.11 308.851 255.585 304.459 253.624 300.43C252.117 297.334 250.52 294.299 248.931 291.292C248.824 291.09 248.717 290.888 248.61 290.685C247.126 287.88 245.654 285.096 244.26 282.286C241.272 276.263 238.663 270.162 237.116 263.603C235.607 257.202 235.241 250.734 235.255 244.169C235.262 240.985 235.358 237.79 235.455 234.567L235.464 234.263C235.564 230.942 235.661 227.594 235.657 224.232Z" stroke="url(#paint12_linear)" stroke-width="2"/>
<path opacity="0.482759" d="M245.336 227.07C245.675 223.144 245.89 219.226 246.094 215.337C246.11 215.044 246.125 214.751 246.14 214.459C246.329 210.862 246.516 207.29 246.792 203.737C247.39 196.056 248.402 188.512 250.725 181.135C251.809 177.691 252.814 174.177 253.822 170.651C255.703 164.071 257.596 157.451 260.041 151.168C263.777 141.565 268.731 132.977 276.688 126.958C284.535 121.023 294.031 118.538 304.154 117.578C311.923 116.841 319.975 117.006 327.884 117.168C330.304 117.217 332.71 117.267 335.091 117.29C337.646 117.315 340.23 117.308 342.829 117.302C350.741 117.282 358.786 117.262 366.54 118.12C376.817 119.258 386.429 121.929 394.305 128.1C402.191 134.28 405.511 143.73 408.363 154.003C408.742 155.366 409.112 156.744 409.484 158.13C411.887 167.078 414.373 176.335 419.706 183.81C422.757 188.086 426.958 191.552 431.505 194.651C434.474 196.673 437.645 198.574 440.762 200.442C442.396 201.421 444.015 202.392 445.583 203.366C454.834 209.118 462.391 215.086 463.314 224.665C464.274 234.628 457.317 242.2 448.973 250.075C448.176 250.826 447.368 251.58 446.556 252.338C443.171 255.495 439.712 258.722 436.72 262.142C433.001 266.393 429.928 271.025 428.549 276.351C427.153 281.742 427.603 287.368 428.807 292.978C429.766 297.445 431.221 301.972 432.645 306.402C433.005 307.523 433.364 308.638 433.712 309.745C437.205 320.853 439.573 330.974 433.663 339.202C427.934 347.177 418.542 349.713 407.764 350.508C403.051 350.856 398.137 350.868 393.208 350.88C392.514 350.882 391.819 350.883 391.124 350.886C385.522 350.907 379.941 350.99 374.77 351.647C363.257 353.11 351.966 352.903 340.467 352.692C335.762 352.605 331.022 352.518 326.218 352.545C321.859 352.569 317.37 353.176 312.906 353.908C311.52 354.135 310.14 354.373 308.766 354.61C305.688 355.142 302.64 355.668 299.624 356.051C290.905 357.157 282.834 357 276.11 352.365C269.158 347.572 265.842 339.914 263.488 331.205C262.633 328.041 261.914 324.78 261.189 321.489C260.916 320.25 260.643 319.007 260.36 317.763C259.332 313.237 258.196 308.729 256.593 304.544C255.362 301.329 254.036 298.167 252.715 295.032C252.626 294.821 252.537 294.61 252.448 294.4C251.214 291.475 249.991 288.574 248.847 285.654C246.395 279.393 244.327 273.087 243.359 266.419C242.413 259.91 242.612 253.436 243.198 246.896C243.482 243.725 243.856 240.55 244.234 237.348L244.269 237.046C244.658 233.747 245.047 230.419 245.336 227.07Z" stroke="url(#paint13_linear)" stroke-width="2"/>
<path opacity="0.517241" d="M254.731 230.741C255.411 226.86 255.966 222.975 256.509 219.118C256.55 218.828 256.59 218.538 256.631 218.248C257.132 214.681 257.63 211.139 258.215 207.624C259.48 200.024 261.146 192.597 264.103 185.451C265.483 182.114 266.79 178.701 268.102 175.277C270.549 168.885 273.011 162.455 275.995 156.409C280.554 147.169 286.238 139.045 294.689 133.743C303.023 128.514 312.699 126.866 322.868 126.792C330.672 126.735 338.679 127.601 346.543 128.452C348.95 128.712 351.343 128.971 353.712 129.201C356.255 129.449 358.831 129.667 361.42 129.888C369.303 130.557 377.319 131.239 384.969 132.77C395.108 134.799 404.451 138.297 411.758 145.131C419.076 151.975 421.56 161.678 423.506 172.161C423.764 173.552 424.013 174.957 424.263 176.37C425.877 185.494 427.547 194.932 432.208 202.843C434.874 207.369 438.758 211.188 443.017 214.671C445.798 216.944 448.792 219.114 451.734 221.246C453.276 222.365 454.805 223.473 456.281 224.58C464.997 231.116 472.004 237.72 472.089 247.343C472.177 257.352 464.587 264.289 455.588 271.406C454.729 272.086 453.858 272.766 452.982 273.451C449.336 276.3 445.608 279.213 442.33 282.36C438.255 286.271 434.79 290.617 432.952 295.803C431.091 301.051 431.049 306.695 431.759 312.389C432.325 316.922 433.38 321.559 434.413 326.096C434.674 327.245 434.934 328.387 435.184 329.519C437.696 340.89 439.173 351.179 432.568 358.86C426.166 366.306 416.589 368.013 405.783 367.866C401.057 367.802 396.16 367.386 391.25 366.968C390.558 366.909 389.865 366.85 389.173 366.792C383.59 366.325 378.023 365.921 372.815 366.125C361.218 366.579 349.988 365.388 338.551 364.176C333.871 363.68 329.157 363.18 324.369 362.788C320.025 362.432 315.5 362.646 310.989 362.985C309.589 363.091 308.193 363.208 306.804 363.324C303.691 363.586 300.609 363.845 297.571 363.963C288.789 364.305 280.762 363.445 274.468 358.241C267.96 352.861 265.324 344.943 263.738 336.062C263.162 332.835 262.73 329.524 262.295 326.182C262.131 324.924 261.966 323.662 261.793 322.398C261.164 317.8 260.425 313.21 259.193 308.901C258.247 305.591 257.201 302.325 256.158 299.088C256.088 298.87 256.018 298.652 255.947 298.434C254.974 295.414 254.007 292.417 253.122 289.408C251.225 282.957 249.715 276.495 249.332 269.768C248.957 263.202 249.719 256.769 250.873 250.305C251.432 247.171 252.082 244.041 252.737 240.884L252.799 240.586C253.474 237.333 254.151 234.053 254.731 230.741Z" stroke="url(#paint14_linear)" stroke-width="2"/>
<path opacity="0.551724" d="M263.771 235.217C264.786 231.41 265.678 227.589 266.554 223.794C266.62 223.508 266.686 223.223 266.752 222.937C267.562 219.427 268.366 215.942 269.256 212.492C271.178 205.031 273.485 197.777 277.053 190.916C278.72 187.712 280.319 184.426 281.924 181.129C284.919 174.975 287.933 168.785 291.432 163.021C296.779 154.214 303.149 146.616 312.03 142.07C320.788 137.588 330.571 136.79 340.707 137.602C348.487 138.225 356.388 139.786 364.148 141.319C366.523 141.788 368.884 142.254 371.225 142.69C373.736 143.158 376.283 143.601 378.843 144.046C386.638 145.4 394.564 146.778 402.051 148.969C411.975 151.874 420.978 156.174 427.661 163.619C434.354 171.074 435.984 180.957 437.008 191.569C437.144 192.978 437.27 194.399 437.395 195.828C438.208 205.058 439.049 214.606 443.003 222.893C445.265 227.634 448.801 231.777 452.741 235.618C455.313 238.125 458.106 240.548 460.851 242.928C462.29 244.177 463.716 245.414 465.091 246.646C473.203 253.917 479.608 261.106 478.854 270.7C478.069 280.679 469.903 286.928 460.319 293.233C459.404 293.835 458.477 294.437 457.545 295.043C453.664 297.564 449.696 300.141 446.157 302.989C441.756 306.531 437.925 310.559 435.642 315.564C433.332 320.63 432.797 326.249 433.009 331.983C433.177 336.548 433.825 341.26 434.458 345.869C434.618 347.036 434.777 348.197 434.928 349.347C436.439 360.893 437.014 371.272 429.764 378.348C422.737 385.207 413.048 386.074 402.296 384.985C397.594 384.51 392.752 383.668 387.897 382.824C387.212 382.705 386.527 382.586 385.843 382.468C380.322 381.516 374.811 380.628 369.605 380.377C358.013 379.819 346.929 377.654 335.642 375.45C331.023 374.547 326.37 373.639 321.634 372.831C317.338 372.097 312.812 371.916 308.288 371.861C306.884 371.844 305.484 371.839 304.09 371.834C300.966 371.823 297.873 371.813 294.836 371.666C286.058 371.241 278.137 369.684 272.32 363.952C266.305 358.025 264.369 349.907 263.563 340.922C263.271 337.657 263.129 334.321 262.987 330.954C262.933 329.687 262.879 328.415 262.817 327.141C262.591 322.506 262.255 317.869 261.403 313.469C260.749 310.088 259.992 306.744 259.235 303.428C259.184 303.205 259.133 302.982 259.082 302.759C258.375 299.665 257.674 296.595 257.055 293.52C255.727 286.929 254.786 280.36 254.99 273.624C255.189 267.051 256.509 260.709 258.222 254.37C259.052 251.297 259.972 248.235 260.9 245.148L260.987 244.856C261.943 241.674 262.904 238.465 263.771 235.217Z" stroke="url(#paint15_linear)" stroke-width="2"/>
<path opacity="0.586207" d="M272.385 240.464C273.729 236.76 274.95 233.03 276.154 229.326C276.244 229.048 276.335 228.769 276.425 228.491C277.538 225.064 278.644 221.663 279.83 218.303C282.395 211.038 285.326 204.013 289.479 197.489C291.418 194.442 293.298 191.308 295.184 188.164C298.704 182.295 302.245 176.39 306.233 170.954C312.328 162.646 319.336 155.632 328.579 151.878C337.695 148.175 347.51 148.233 357.537 149.926C365.232 151.225 372.968 153.468 380.564 155.671C382.889 156.345 385.201 157.016 387.495 157.654C389.956 158.34 392.454 159.002 394.966 159.669C402.613 161.697 410.389 163.76 417.657 166.596C427.289 170.355 435.883 175.423 441.893 183.422C447.91 191.432 448.672 201.42 448.768 212.081C448.781 213.496 448.782 214.923 448.782 216.357C448.788 225.623 448.793 235.208 452.01 243.808C453.85 248.728 457.011 253.164 460.601 257.333C462.945 260.055 465.516 262.712 468.043 265.322C469.369 266.692 470.682 268.048 471.943 269.395C479.391 277.345 485.145 285.066 483.557 294.557C481.906 304.43 473.227 309.943 463.129 315.39C462.165 315.909 461.189 316.428 460.208 316.95C456.122 319.124 451.945 321.345 448.17 323.874C443.478 327.018 439.311 330.697 436.6 335.485C433.857 340.33 432.834 345.881 432.546 351.612C432.316 356.174 432.55 360.924 432.779 365.572C432.837 366.748 432.894 367.918 432.944 369.076C433.443 380.71 433.111 391.1 425.272 397.518C417.675 403.738 407.947 403.757 397.33 401.736C392.688 400.852 387.938 399.591 383.174 398.327C382.503 398.149 381.831 397.971 381.159 397.793C375.743 396.364 370.33 394.999 365.165 394.296C353.667 392.729 342.813 389.607 331.761 386.427C327.238 385.125 322.682 383.815 318.035 382.597C313.819 381.492 309.325 380.917 304.824 380.468C303.427 380.329 302.032 380.202 300.644 380.075C297.533 379.792 294.452 379.512 291.44 379.101C282.732 377.912 274.977 375.671 269.682 369.454C264.207 363.025 262.986 354.77 262.966 345.749C262.959 342.471 263.109 339.135 263.26 335.769C263.317 334.501 263.375 333.229 263.424 331.955C263.602 327.318 263.672 322.669 263.207 318.211C262.85 314.787 262.387 311.389 261.922 308.02C261.891 307.793 261.859 307.566 261.828 307.34C261.393 304.196 260.962 301.077 260.613 297.96C259.865 291.278 259.5 284.652 260.29 277.96C261.062 271.429 262.929 265.226 265.188 259.061C266.283 256.072 267.467 253.102 268.66 250.107L268.773 249.824C270.002 246.737 271.239 243.624 272.385 240.464Z" stroke="url(#paint16_linear)" stroke-width="2"/>
<path opacity="0.62069" d="M280.51 246.441C282.171 242.868 283.712 239.26 285.235 235.675C285.349 235.405 285.464 235.135 285.578 234.866C286.986 231.55 288.383 228.258 289.858 225.014C293.046 218 296.578 211.257 301.284 205.12C303.481 202.254 305.627 199.295 307.78 196.327C311.798 190.787 315.841 185.214 320.287 180.146C327.083 172.4 334.675 166.024 344.211 163.09C353.614 160.196 363.387 161.109 373.229 163.669C380.781 165.634 388.292 168.543 395.668 171.4C397.925 172.274 400.169 173.144 402.398 173.98C404.791 174.877 407.222 175.755 409.666 176.637C417.107 179.325 424.674 182.058 431.667 185.516C440.935 190.1 449.054 195.897 454.344 204.39C459.64 212.894 459.529 222.91 458.695 233.539C458.585 234.95 458.461 236.371 458.337 237.801C457.534 247.031 456.704 256.58 459.159 265.428C460.564 270.49 463.326 275.184 466.539 279.651C468.637 282.566 470.967 285.437 473.257 288.258C474.458 289.738 475.647 291.203 476.787 292.655C483.513 301.224 488.573 309.417 486.164 318.734C483.658 328.425 474.531 333.161 463.997 337.706C462.992 338.14 461.974 338.572 460.952 339.007C456.692 340.816 452.337 342.665 448.356 344.855C443.408 347.578 438.936 350.88 435.818 355.413C432.663 360.001 431.161 365.441 430.374 371.126C429.747 375.65 429.566 380.403 429.389 385.052C429.344 386.229 429.3 387.4 429.248 388.558C428.731 400.191 427.495 410.512 419.127 416.223C411.016 421.757 401.323 420.928 390.924 417.989C386.376 416.704 381.754 415.034 377.118 413.36C376.465 413.124 375.811 412.888 375.158 412.653C369.886 410.756 364.613 408.925 359.53 407.774C348.211 405.212 337.671 401.155 326.938 397.024C322.546 395.333 318.122 393.63 313.598 392.012C309.494 390.544 305.068 389.579 300.623 388.74C299.243 388.479 297.865 388.231 296.493 387.984C293.418 387.431 290.374 386.883 287.409 386.211C278.838 384.269 271.308 381.36 266.575 374.705C261.681 367.824 261.184 359.493 261.95 350.505C262.229 347.239 262.669 343.929 263.113 340.588C263.281 339.331 263.449 338.069 263.609 336.803C264.191 332.199 264.665 327.574 264.59 323.093C264.533 319.651 264.368 316.226 264.198 312.829C264.187 312.6 264.176 312.371 264.164 312.143C264.005 308.973 263.848 305.828 263.772 302.693C263.609 295.971 263.823 289.338 265.193 282.74C266.531 276.301 268.932 270.285 271.719 264.34C273.071 261.458 274.508 258.602 275.958 255.723L276.095 255.451C277.589 252.483 279.092 249.49 280.51 246.441Z" stroke="url(#paint17_linear)" stroke-width="2"/>
<path opacity="0.655172" d="M288.083 253.104C290.049 249.69 291.899 246.229 293.728 242.791C293.865 242.532 294.003 242.273 294.14 242.015C295.832 238.834 297.51 235.676 299.262 232.573C303.05 225.864 307.156 219.454 312.379 213.751C314.817 211.087 317.213 208.327 319.616 205.558C324.102 200.389 328.615 195.189 333.487 190.528C340.931 183.404 349.051 177.714 358.806 175.622C368.426 173.559 378.082 175.32 387.662 178.728C395.015 181.344 402.243 184.896 409.342 188.385C411.515 189.453 413.675 190.514 415.823 191.542C418.128 192.644 420.473 193.73 422.831 194.823C430.009 198.148 437.309 201.53 443.974 205.585C452.807 210.959 460.391 217.442 464.92 226.364C469.455 235.297 468.471 245.266 466.714 255.781C466.481 257.177 466.234 258.582 465.986 259.995C464.382 269.121 462.723 278.561 464.397 287.589C465.355 292.754 467.698 297.671 470.51 302.401C472.345 305.488 474.416 308.551 476.451 311.561C477.519 313.139 478.576 314.703 479.585 316.249C485.539 325.372 489.865 333.974 486.653 343.046C483.313 352.482 473.808 356.404 462.918 360.014C461.878 360.359 460.827 360.7 459.77 361.044C455.369 362.475 450.87 363.937 446.713 365.772C441.546 368.054 436.803 370.953 433.302 375.197C429.759 379.493 427.789 384.782 426.509 390.376C425.491 394.828 424.896 399.547 424.315 404.163C424.167 405.332 424.021 406.494 423.869 407.644C422.34 419.188 420.209 429.362 411.375 434.321C402.812 439.128 393.229 437.456 383.125 433.623C378.706 431.946 374.247 429.88 369.776 427.808C369.145 427.516 368.515 427.223 367.884 426.932C362.798 424.584 357.705 422.3 352.741 420.71C341.688 417.171 331.542 412.211 321.21 407.16C316.982 405.093 312.723 403.011 308.358 401.005C304.397 399.185 300.072 397.838 295.717 396.614C294.365 396.235 293.014 395.867 291.669 395.502C288.654 394.683 285.669 393.872 282.774 392.944C274.405 390.262 267.156 386.708 263.021 379.665C258.746 372.384 258.977 364.041 260.524 355.154C261.086 351.925 261.813 348.666 262.547 345.377C262.823 344.139 263.1 342.896 263.37 341.649C264.351 337.113 265.227 332.548 265.543 328.077C265.786 324.643 265.92 321.216 266.047 317.817C266.056 317.588 266.064 317.36 266.073 317.131C266.191 313.96 266.308 310.813 266.505 307.683C266.929 300.972 267.72 294.383 269.66 287.93C271.554 281.632 274.47 275.848 277.765 270.169C279.363 267.415 281.044 264.696 282.739 261.954L282.899 261.695C284.646 258.869 286.405 256.018 288.083 253.104Z" stroke="url(#paint18_linear)" stroke-width="2"/>
<path opacity="0.689655" d="M295.046 260.402C297.302 257.172 299.447 253.886 301.568 250.619C301.728 250.374 301.888 250.128 302.047 249.882C304.009 246.861 305.957 243.862 307.973 240.923C312.331 234.57 316.98 228.542 322.679 223.315C325.341 220.875 327.968 218.334 330.604 215.784C335.523 211.026 340.472 206.24 345.731 202.021C353.768 195.573 362.353 190.612 372.253 189.378C382.016 188.161 391.482 190.758 400.729 194.988C407.826 198.234 414.717 202.403 421.485 206.497C423.556 207.75 425.615 208.996 427.665 210.207C429.866 211.506 432.107 212.792 434.361 214.086C441.222 218.025 448.199 222.03 454.486 226.651C462.817 232.774 469.806 239.893 473.541 249.175C477.28 258.47 475.431 268.315 472.764 278.637C472.411 280.007 472.042 281.386 471.671 282.772C469.278 291.723 466.803 300.983 467.684 310.122C468.188 315.351 470.094 320.454 472.482 325.411C474.042 328.646 475.838 331.878 477.603 335.054C478.529 336.719 479.446 338.369 480.316 339.997C485.452 349.604 489.012 358.55 485.022 367.308C480.872 376.416 471.061 379.495 459.898 382.143C458.832 382.395 457.755 382.644 456.672 382.894C452.163 383.936 447.554 385.001 443.253 386.467C437.907 388.289 432.929 390.764 429.072 394.687C425.168 398.658 422.744 403.754 420.982 409.215C419.579 413.563 418.575 418.212 417.594 422.76C417.345 423.911 417.098 425.056 416.846 426.188C414.317 437.555 411.308 447.504 402.075 451.675C393.126 455.717 383.725 453.217 373.993 448.517C369.738 446.461 365.475 444.014 361.201 441.561C360.599 441.215 359.996 440.869 359.393 440.523C354.531 437.741 349.657 435.022 344.85 433.005C334.148 428.516 324.473 422.691 314.62 416.759C310.588 414.331 306.527 411.886 302.353 409.507C298.567 407.349 294.375 405.63 290.144 404.031C288.83 403.535 287.516 403.052 286.207 402.57C283.276 401.491 280.373 400.423 277.569 399.247C269.466 395.845 262.555 391.673 259.049 384.297C255.425 376.671 256.382 368.38 258.698 359.662C259.539 356.493 260.548 353.31 261.565 350.098C261.948 348.888 262.333 347.675 262.71 346.456C264.083 342.023 265.353 337.551 266.057 333.125C266.599 329.725 267.031 326.323 267.454 322.948C267.483 322.721 267.511 322.494 267.539 322.267C267.933 319.118 268.324 315.993 268.794 312.892C269.801 306.244 271.163 299.749 273.658 293.49C276.094 287.381 279.503 281.873 283.281 276.502C285.112 273.899 287.024 271.336 288.951 268.752L289.134 268.508C291.12 265.845 293.12 263.158 295.046 260.402Z" stroke="url(#paint19_linear)" stroke-width="2"/>
<path opacity="0.724138" d="M301.346 268.279C303.876 265.257 306.299 262.171 308.697 259.102C308.877 258.871 309.058 258.64 309.238 258.409C311.456 255.571 313.657 252.752 315.922 250.001C320.817 244.051 325.974 238.452 332.107 233.742C334.971 231.542 337.81 229.24 340.658 226.93C345.973 222.619 351.32 218.282 356.927 214.537C365.495 208.815 374.48 204.621 384.45 204.254C394.282 203.893 403.485 207.304 412.329 212.324C419.116 216.177 425.617 220.931 432.002 225.599C433.956 227.028 435.899 228.449 437.836 229.833C439.915 231.319 442.036 232.796 444.168 234.281C450.66 238.803 457.262 243.401 463.121 248.552C470.887 255.378 477.23 263.08 480.141 272.652C483.056 282.237 480.356 291.883 476.799 301.934C476.328 303.268 475.84 304.609 475.35 305.958C472.186 314.666 468.913 323.675 468.994 332.856C469.041 338.109 470.494 343.359 472.442 348.505C473.713 351.864 475.221 355.24 476.703 358.557C477.48 360.297 478.25 362.021 478.974 363.718C483.254 373.736 486.02 382.959 481.282 391.335C476.354 400.047 466.312 402.26 454.961 403.924C453.877 404.083 452.782 404.237 451.682 404.392C447.099 405.036 442.414 405.695 438.002 406.781C432.517 408.131 427.343 410.162 423.159 413.734C418.923 417.349 416.065 422.215 413.833 427.502C412.057 431.71 410.652 436.254 409.278 440.699C408.93 441.825 408.584 442.944 408.234 444.049C404.724 455.152 400.859 464.802 391.298 468.152C382.03 471.398 372.883 468.089 363.598 462.558C359.538 460.14 355.505 457.331 351.461 454.514C350.891 454.117 350.321 453.719 349.751 453.323C345.15 450.127 340.53 446.994 335.918 444.566C325.648 439.161 316.517 432.515 307.219 425.747C303.414 422.977 299.581 420.187 295.631 417.453C292.047 414.973 288.021 412.896 283.945 410.934C282.679 410.325 281.412 409.729 280.151 409.136C277.324 407.805 274.526 406.488 271.835 405.072C264.059 400.977 257.538 396.219 254.689 388.565C251.743 380.652 253.419 372.476 256.486 363.993C257.6 360.91 258.882 357.827 260.176 354.715C260.663 353.544 261.151 352.368 261.634 351.187C263.387 346.891 265.042 342.546 266.13 338.198C266.966 334.858 267.693 331.507 268.408 328.182C268.457 327.958 268.505 327.735 268.553 327.511C269.22 324.408 269.881 321.33 270.62 318.281C272.202 311.746 274.125 305.395 277.157 299.377C280.115 293.503 283.992 288.313 288.223 283.292C290.274 280.858 292.402 278.472 294.547 276.066L294.75 275.838C296.961 273.359 299.188 270.857 301.346 268.279Z" stroke="url(#paint20_linear)" stroke-width="2"/>
<path opacity="0.758621" d="M306.936 276.675C309.72 273.885 312.402 271.022 315.059 268.173C315.259 267.959 315.459 267.745 315.658 267.531C318.115 264.896 320.554 262.28 323.049 259.736C328.445 254.236 334.07 249.108 340.59 244.95C343.635 243.008 346.664 240.962 349.702 238.91C355.373 235.078 361.078 231.223 366.989 227.982C376.024 223.028 385.34 219.633 395.304 220.137C405.13 220.634 414.001 224.834 422.373 230.606C428.799 235.035 434.861 240.338 440.815 245.545C442.637 247.138 444.449 248.723 446.258 250.271C448.199 251.932 450.183 253.589 452.178 255.254C458.251 260.325 464.427 265.481 469.815 271.122C476.956 278.6 482.604 286.824 484.669 296.614C486.738 306.417 483.207 315.791 478.789 325.494C478.202 326.781 477.6 328.075 476.994 329.375C473.083 337.775 469.038 346.464 468.318 355.618C467.907 360.855 468.897 366.211 470.389 371.507C471.363 374.964 472.57 378.459 473.757 381.893C474.38 383.694 474.996 385.478 475.571 387.232C478.96 397.585 480.913 407.014 475.463 414.945C469.794 423.195 459.597 424.524 448.144 425.192C447.051 425.256 445.947 425.314 444.837 425.372C440.215 425.615 435.491 425.863 431.001 426.56C425.42 427.427 420.088 429 415.608 432.193C411.074 435.425 407.802 440.024 405.118 445.096C402.982 449.133 401.186 453.538 399.43 457.846C398.985 458.937 398.543 460.021 398.098 461.092C393.634 471.847 388.942 481.123 379.126 483.627C369.611 486.054 360.786 481.959 352.019 475.641C348.185 472.877 344.412 469.728 340.629 466.569C340.096 466.124 339.563 465.678 339.029 465.234C334.724 461.649 330.395 458.124 326.012 455.304C316.252 449.025 307.735 441.608 299.062 434.055C295.513 430.964 291.938 427.851 288.241 424.783C284.887 422 281.058 419.58 277.168 417.271C275.96 416.554 274.75 415.849 273.545 415.148C270.845 413.577 268.172 412.021 265.615 410.375C258.226 405.618 252.144 400.31 249.973 392.437C247.728 384.297 250.11 376.298 253.905 368.114C255.283 365.141 256.829 362.181 258.389 359.194C258.976 358.069 259.566 356.941 260.149 355.806C262.271 351.679 264.298 347.495 265.76 343.259C266.884 340.004 267.901 336.73 268.903 333.479C268.971 333.261 269.038 333.042 269.105 332.823C270.04 329.79 270.968 326.781 271.969 323.809C274.115 317.436 276.584 311.277 280.129 305.546C283.588 299.953 287.902 295.12 292.554 290.487C294.81 288.241 297.138 286.05 299.485 283.84L299.707 283.631C302.125 281.353 304.562 279.055 306.936 276.675Z" stroke="url(#paint21_linear)" stroke-width="2"/>
<path opacity="0.793103" d="M311.774 285.526C314.789 282.989 317.711 280.371 320.606 277.765C320.824 277.569 321.042 277.373 321.259 277.177C323.936 274.766 326.594 272.373 329.302 270.056C335.156 265.047 341.206 260.429 348.064 256.855C351.267 255.186 354.462 253.412 357.668 251.632C363.651 248.309 369.67 244.966 375.842 242.252C385.274 238.104 394.85 235.534 404.732 236.905C414.478 238.256 422.949 243.214 430.786 249.693C436.801 254.666 442.378 260.476 447.856 266.183C449.532 267.929 451.199 269.666 452.866 271.365C454.655 273.189 456.487 275.012 458.329 276.846C463.937 282.426 469.64 288.1 474.516 294.19C480.979 302.262 485.888 310.947 487.092 320.88C488.299 330.826 483.964 339.856 478.717 349.137C478.021 350.368 477.308 351.605 476.591 352.848C471.963 360.874 467.175 369.178 465.661 378.234C464.794 383.415 465.314 388.837 466.339 394.243C467.008 397.772 467.906 401.358 468.789 404.883C469.252 406.731 469.711 408.563 470.13 410.36C472.605 420.969 473.728 430.532 467.607 437.958C461.241 445.682 450.968 446.117 439.5 445.785C438.405 445.753 437.3 445.715 436.19 445.676C431.564 445.515 426.836 445.351 422.303 445.654C416.667 446.03 411.219 447.133 406.477 449.924C401.679 452.748 398.018 457.044 394.903 461.863C392.422 465.699 390.25 469.93 388.125 474.069C387.587 475.117 387.051 476.159 386.515 477.187C381.13 487.512 375.648 496.343 365.651 497.982C355.961 499.57 347.527 494.722 339.343 487.664C335.765 484.577 332.281 481.11 328.788 477.634C328.296 477.144 327.803 476.654 327.31 476.164C323.334 472.218 319.329 468.33 315.208 465.138C306.032 458.032 298.195 449.901 290.213 441.621C286.947 438.233 283.657 434.82 280.241 431.441C277.142 428.377 273.538 425.632 269.865 422.992C268.724 422.173 267.58 421.366 266.441 420.562C263.888 418.761 261.361 416.978 258.957 415.116C252.01 409.733 246.414 403.915 244.937 395.883C243.41 387.578 246.481 379.818 250.974 371.996C252.607 369.153 254.405 366.339 256.219 363.5C256.902 362.431 257.587 361.358 258.267 360.278C260.741 356.352 263.125 352.361 264.951 348.268C266.354 345.124 267.652 341.95 268.934 338.799C269.02 338.587 269.107 338.375 269.193 338.163C270.388 335.224 271.574 332.307 272.831 329.433C275.524 323.272 278.521 317.351 282.551 311.951C286.485 306.68 291.204 302.242 296.242 298.032C298.685 295.992 301.195 294.011 303.726 292.014L303.965 291.825C306.573 289.767 309.201 287.69 311.774 285.526Z" stroke="url(#paint22_linear)" stroke-width="2"/>
<path opacity="0.827586" d="M315.821 294.765C319.046 292.501 322.185 290.147 325.296 287.803C325.53 287.627 325.764 287.45 325.998 287.274C328.875 285.106 331.731 282.954 334.63 280.882C340.899 276.402 347.329 272.328 354.472 269.366C357.808 267.983 361.146 266.494 364.494 265C370.744 262.211 377.032 259.405 383.417 257.24C393.175 253.93 402.938 252.204 412.663 254.431C422.254 256.626 430.261 262.304 437.504 269.441C443.062 274.919 448.112 281.194 453.071 287.356C454.589 289.241 456.098 291.117 457.61 292.955C459.234 294.928 460.9 296.904 462.576 298.891C467.676 304.939 472.862 311.089 477.189 317.58C482.924 326.184 487.057 335.265 487.391 345.264C487.726 355.278 482.621 363.896 476.585 372.684C475.784 373.85 474.966 375.019 474.144 376.195C468.834 383.788 463.341 391.643 461.042 400.532C459.728 405.618 459.773 411.065 460.323 416.54C460.681 420.113 461.264 423.764 461.836 427.353C462.137 429.234 462.434 431.099 462.695 432.926C464.236 443.71 464.521 453.334 457.776 460.199C450.761 467.339 440.489 466.877 429.093 465.546C428.006 465.419 426.908 465.285 425.805 465.149C421.212 464.586 416.516 464.01 411.974 463.917C406.326 463.801 400.802 464.424 395.836 466.791C390.809 469.187 386.789 473.147 383.265 477.676C380.46 481.282 377.927 485.307 375.449 489.245C374.821 490.242 374.198 491.233 373.574 492.211C367.31 502.027 361.079 510.347 350.976 511.108C341.185 511.846 333.205 506.281 325.668 498.536C322.372 495.15 319.204 491.392 316.027 487.625C315.579 487.094 315.131 486.562 314.683 486.032C311.066 481.754 307.415 477.532 303.588 473.993C295.067 466.114 287.967 457.331 280.738 448.387C277.779 444.727 274.799 441.04 271.691 437.377C268.871 434.054 265.52 431.005 262.09 428.056C261.026 427.14 259.956 426.236 258.891 425.336C256.505 423.32 254.143 421.323 251.911 419.259C245.459 413.291 240.392 407.007 239.621 398.877C238.823 390.47 242.558 383.007 247.716 375.607C249.591 372.917 251.627 370.271 253.682 367.6C254.455 366.595 255.232 365.586 256.003 364.57C258.809 360.874 261.532 357.105 263.708 353.187C265.38 350.177 266.95 347.129 268.501 344.102C268.606 343.898 268.71 343.695 268.814 343.491C270.262 340.666 271.698 337.864 273.2 335.111C276.419 329.208 279.921 323.571 284.407 318.542C288.785 313.635 293.872 309.625 299.259 305.87C301.87 304.05 304.543 302.296 307.238 300.527L307.493 300.36C310.27 298.537 313.069 296.696 315.821 294.765Z" stroke="url(#paint23_linear)" stroke-width="2"/>
<path opacity="0.862069" d="M319.048 304.321C322.458 302.347 325.79 300.276 329.094 298.212C329.342 298.057 329.59 297.902 329.839 297.746C332.894 295.837 335.927 293.942 338.995 292.131C345.63 288.214 352.391 284.716 359.766 282.388C363.209 281.301 366.664 280.108 370.13 278.912C376.599 276.678 383.108 274.432 389.657 272.831C399.666 270.384 409.543 269.516 419.037 272.581C428.4 275.604 435.881 281.958 442.474 289.7C447.534 295.641 452.018 302.332 456.421 308.903C457.769 310.914 459.109 312.913 460.455 314.877C461.901 316.984 463.388 319.097 464.884 321.222C469.438 327.692 474.069 334.27 477.813 341.114C482.776 350.185 486.102 359.591 485.564 369.582C485.025 379.586 479.188 387.727 472.409 395.956C471.509 397.047 470.593 398.141 469.671 399.241C463.719 406.342 457.562 413.688 454.498 422.343C452.745 427.296 452.316 432.725 452.386 438.227C452.432 441.819 452.694 445.506 452.952 449.131C453.087 451.031 453.221 452.915 453.321 454.757C453.916 465.635 453.362 475.248 446.044 481.498C438.433 488 428.241 486.644 417.004 484.325C415.932 484.104 414.851 483.874 413.764 483.644C409.236 482.682 404.609 481.699 400.092 481.21C394.476 480.602 388.919 480.742 383.765 482.667C378.549 484.615 374.198 488.21 370.293 492.415C367.184 495.762 364.31 499.551 361.498 503.258C360.787 504.197 360.079 505.13 359.372 506.05C352.276 515.282 345.344 523.028 335.214 522.906C325.395 522.787 317.931 516.548 311.098 508.176C308.109 504.515 305.281 500.496 302.444 496.465C302.044 495.897 301.644 495.329 301.244 494.761C298.013 490.185 294.744 485.66 291.24 481.801C283.438 473.21 277.131 463.842 270.709 454.301C268.081 450.397 265.433 446.465 262.656 442.545C260.136 438.988 257.064 435.659 253.905 432.422C252.924 431.417 251.937 430.423 250.954 429.434C248.753 427.218 246.574 425.023 244.53 422.771C238.624 416.264 234.123 409.562 234.063 401.396C234.002 392.952 238.373 385.843 244.156 378.92C246.258 376.404 248.517 373.945 250.797 371.464C251.655 370.53 252.517 369.592 253.374 368.647C256.491 365.21 259.532 361.693 262.041 357.98C263.969 355.127 265.799 352.227 267.608 349.347C267.73 349.153 267.851 348.959 267.973 348.765C269.661 346.078 271.336 343.411 273.072 340.799C276.794 335.199 280.774 329.889 285.681 325.27C290.47 320.763 295.887 317.212 301.581 313.941C304.341 312.355 307.156 310.841 309.995 309.314L310.264 309.169C313.189 307.595 316.138 306.006 319.048 304.321Z" stroke="url(#paint24_linear)" stroke-width="2"/>
<path opacity="0.896552" d="M321.429 314.123C324.998 312.453 328.499 310.68 331.969 308.912C332.23 308.779 332.491 308.646 332.752 308.513C335.962 306.878 339.149 305.254 342.364 303.717C349.314 300.394 356.354 297.499 363.904 295.822C367.429 295.039 370.975 294.152 374.532 293.262C381.171 291.601 387.85 289.93 394.514 288.906C404.699 287.341 414.613 287.337 423.804 291.218C432.868 295.046 439.767 302.027 445.661 310.314C450.183 316.674 454.067 323.73 457.881 330.66C459.048 332.78 460.208 334.889 461.379 336.962C462.635 339.187 463.933 341.422 465.238 343.67C469.21 350.511 473.25 357.469 476.384 364.613C480.537 374.082 483.031 383.742 481.624 393.648C480.215 403.567 473.691 411.168 466.22 418.775C465.229 419.784 464.22 420.794 463.206 421.809C456.659 428.364 449.885 435.146 446.078 443.501C443.9 448.282 442.999 453.653 442.589 459.14C442.322 462.722 442.262 466.419 442.203 470.052C442.171 471.957 442.141 473.845 442.08 475.689C441.725 486.577 440.335 496.105 432.501 501.694C424.352 507.507 414.316 505.269 403.325 501.979C402.276 501.666 401.218 501.342 400.156 501.018C395.73 499.665 391.205 498.283 386.748 497.402C381.207 496.307 375.658 495.962 370.357 497.43C364.99 498.917 360.343 502.119 356.086 505.967C352.698 509.03 349.504 512.555 346.38 516.003C345.589 516.876 344.802 517.744 344.018 518.598C336.145 527.177 328.564 534.289 318.483 533.284C308.712 532.31 301.82 525.445 295.742 516.509C293.084 512.601 290.617 508.351 288.142 504.089C287.794 503.488 287.445 502.887 287.095 502.287C284.276 497.446 281.414 492.653 278.259 488.504C271.236 479.265 265.769 469.383 260.203 459.319C257.925 455.201 255.63 451.053 253.205 446.905C251.005 443.143 248.235 439.559 245.369 436.059C244.48 434.972 243.583 433.896 242.691 432.825C240.691 430.425 238.711 428.048 236.872 425.628C231.555 418.63 227.655 411.562 228.308 403.421C228.982 395.004 233.956 388.303 240.321 381.91C242.634 379.587 245.099 377.335 247.586 375.061C248.523 374.205 249.462 373.347 250.399 372.48C253.804 369.327 257.14 366.089 259.963 362.609C262.132 359.935 264.207 357.205 266.261 354.494C266.399 354.311 266.537 354.129 266.675 353.946C268.591 351.416 270.492 348.906 272.449 346.455C276.645 341.201 281.073 336.257 286.363 332.084C291.527 328.011 297.233 324.946 303.19 322.184C306.078 320.845 309.015 319.581 311.976 318.307L312.256 318.187C315.308 316.874 318.384 315.547 321.429 314.123Z" stroke="url(#paint25_linear)" stroke-width="2"/>
<path opacity="0.931035" d="M322.947 324.095C326.648 322.743 330.29 321.281 333.901 319.823C334.173 319.713 334.445 319.603 334.716 319.493C338.056 318.144 341.372 316.804 344.709 315.553C351.923 312.848 359.189 310.578 366.855 309.565C370.436 309.092 374.045 308.518 377.666 307.941C384.425 306.865 391.224 305.783 397.952 305.343C408.234 304.672 418.112 305.532 426.929 310.2C435.625 314.803 441.889 322.359 447.038 331.128C450.989 337.858 454.243 345.225 457.438 352.461C458.416 354.675 459.389 356.877 460.374 359.045C461.431 361.371 462.529 363.71 463.633 366.063C466.995 373.225 470.413 380.508 472.912 387.898C476.224 397.693 477.866 407.534 475.601 417.279C473.333 427.038 466.172 434.041 458.066 440.968C456.991 441.887 455.898 442.805 454.8 443.727C447.705 449.687 440.366 455.852 435.846 463.844C433.259 468.417 431.894 473.69 431.007 479.12C430.429 482.665 430.047 486.342 429.671 489.956C429.474 491.851 429.279 493.729 429.058 495.561C427.755 506.377 425.54 515.748 417.248 520.632C408.624 525.713 398.821 522.609 388.158 518.374C387.141 517.97 386.116 517.556 385.085 517.14C380.794 515.407 376.407 513.635 372.044 512.369C366.619 510.795 361.122 509.968 355.712 510.969C350.237 511.982 345.328 514.767 340.752 518.229C337.109 520.986 333.621 524.218 330.208 527.381C329.344 528.181 328.485 528.978 327.629 529.76C319.038 537.621 310.866 544.045 300.911 542.165C291.262 540.344 284.995 532.903 279.719 523.472C277.412 519.347 275.324 514.898 273.231 510.436C272.935 509.808 272.64 509.178 272.344 508.55C269.958 503.482 267.524 498.458 264.743 494.05C258.552 484.234 253.967 473.913 249.299 463.402C247.389 459.101 245.464 454.768 243.41 450.426C241.546 446.486 239.099 442.674 236.549 438.937C235.758 437.777 234.959 436.627 234.163 435.482C232.38 432.917 230.615 430.377 228.993 427.805C224.306 420.371 221.038 412.99 222.397 404.937C223.803 396.611 229.342 390.369 236.24 384.555C238.746 382.443 241.398 380.413 244.074 378.365C245.082 377.594 246.093 376.821 247.101 376.039C250.768 373.195 254.373 370.26 257.489 367.039C259.883 364.564 262.188 362.026 264.471 359.504C264.624 359.334 264.778 359.164 264.931 358.994C267.06 356.641 269.172 354.306 271.336 352.035C275.974 347.166 280.815 342.628 286.449 338.931C291.948 335.324 297.9 332.768 304.075 330.535C307.069 329.453 310.105 328.45 313.166 327.439L313.455 327.343C316.61 326.301 319.789 325.248 322.947 324.095Z" stroke="url(#paint26_linear)" stroke-width="2"/>
<path opacity="0.965517" d="M323.591 334.161C327.395 333.137 331.151 331.998 334.875 330.86C335.156 330.774 335.436 330.688 335.716 330.603C339.161 329.549 342.581 328.504 346.014 327.548C353.436 325.483 360.872 323.854 368.598 323.513C372.206 323.354 375.851 323.097 379.509 322.838C386.336 322.355 393.204 321.869 399.944 322.018C410.246 322.245 420.011 323.963 428.388 329.381C436.649 334.725 442.231 342.798 446.596 351.982C449.946 359.031 452.545 366.654 455.098 374.141C455.879 376.432 456.655 378.71 457.448 380.955C458.299 383.365 459.189 385.791 460.084 388.231C462.808 395.658 465.578 403.211 467.424 410.792C469.87 420.838 470.648 430.784 467.542 440.295C464.432 449.819 456.687 456.172 448.009 462.365C446.858 463.187 445.689 464.006 444.515 464.83C436.928 470.149 429.079 475.651 423.879 483.218C420.904 487.548 419.084 492.682 417.728 498.014C416.843 501.495 416.142 505.125 415.452 508.693C415.091 510.564 414.733 512.417 414.353 514.223C412.112 524.884 409.089 534.026 400.403 538.17C391.369 542.48 381.874 538.532 371.621 533.384C370.642 532.893 369.657 532.391 368.667 531.887C364.543 529.786 360.328 527.639 356.091 525.998C350.824 523.957 345.42 522.654 339.944 523.179C334.401 523.712 329.268 526.058 324.408 529.109C320.539 531.537 316.782 534.453 313.106 537.306C312.176 538.028 311.25 538.747 310.33 539.452C301.086 546.534 292.385 552.221 282.632 549.481C273.178 546.825 267.584 538.867 263.15 529.011C261.211 524.702 259.519 520.087 257.822 515.46C257.583 514.808 257.344 514.156 257.104 513.504C255.168 508.247 253.181 503.03 250.795 498.396C245.483 488.078 241.816 477.397 238.081 466.519C236.553 462.068 235.014 457.584 233.346 453.079C231.832 448.992 229.726 444.981 227.512 441.036C226.825 439.812 226.129 438.597 225.436 437.387C223.884 434.676 222.346 431.992 220.955 429.288C216.934 421.474 214.321 413.836 216.377 405.932C218.503 397.76 224.565 392.024 231.944 386.834C234.625 384.948 237.443 383.158 240.288 381.351C241.359 380.671 242.433 379.988 243.505 379.297C247.406 376.784 251.254 374.174 254.639 371.236C257.239 368.98 259.757 366.652 262.25 364.338C262.418 364.183 262.586 364.027 262.753 363.871C265.08 361.712 267.387 359.57 269.74 357.496C274.785 353.051 280.003 348.951 285.938 345.76C291.731 342.646 297.883 340.618 304.229 338.932C307.305 338.115 310.417 337.38 313.555 336.64L313.851 336.57C317.085 335.807 320.344 335.035 323.591 334.161Z" stroke="url(#paint27_linear)" stroke-width="2"/>
<path d="M323.354 344.245C327.234 343.556 331.074 342.749 334.884 341.94C335.17 341.879 335.457 341.818 335.743 341.757C339.267 341.008 342.765 340.264 346.268 339.612C353.843 338.201 361.392 337.226 369.118 337.56C372.726 337.716 376.38 337.777 380.047 337.838C386.889 337.953 393.774 338.067 400.476 338.803C410.718 339.927 420.296 342.489 428.169 348.617C435.933 354.66 440.791 363.189 444.338 372.719C447.061 380.033 448.986 387.854 450.876 395.534C451.455 397.885 452.03 400.222 452.624 402.528C453.261 405.002 453.936 407.497 454.615 410.005C456.682 417.642 458.783 425.408 459.961 433.12C461.522 443.341 461.43 453.317 457.508 462.521C453.579 471.738 445.31 477.392 436.126 482.805C434.907 483.523 433.671 484.238 432.429 484.956C424.408 489.593 416.11 494.39 410.27 501.476C406.929 505.53 404.669 510.485 402.853 515.679C401.667 519.07 400.652 522.625 399.655 526.119C399.132 527.951 398.613 529.766 398.078 531.532C394.916 541.958 391.108 550.801 382.094 554.172C372.718 557.678 363.604 552.918 353.838 546.896C352.906 546.322 351.969 545.736 351.026 545.147C347.101 542.695 343.089 540.189 339.011 538.184C333.942 535.693 328.672 533.923 323.171 533.969C317.603 534.016 312.285 535.906 307.177 538.522C303.111 540.604 299.114 543.182 295.204 545.703C294.214 546.342 293.23 546.977 292.252 547.599C282.426 553.848 273.262 558.755 263.785 555.176C254.599 551.706 249.719 543.291 246.161 533.086C244.605 528.624 243.322 523.88 242.035 519.122C241.853 518.452 241.672 517.781 241.49 517.11C240.019 511.705 238.495 506.335 236.522 501.511C232.129 490.769 229.406 479.808 226.634 468.647C225.5 464.079 224.357 459.478 223.088 454.845C221.937 450.641 220.188 446.462 218.326 442.34C217.748 441.06 217.161 439.789 216.576 438.523C215.266 435.687 213.969 432.879 212.818 430.065C209.494 421.93 207.557 414.093 210.294 406.399C213.123 398.443 219.663 393.257 227.465 388.73C230.3 387.085 233.264 385.547 236.255 383.995C237.381 383.41 238.511 382.824 239.64 382.229C243.745 380.065 247.805 377.801 251.433 375.17C254.22 373.148 256.932 371.049 259.617 368.961C259.798 368.821 259.978 368.68 260.159 368.54C262.664 366.592 265.15 364.659 267.675 362.798C273.088 358.809 278.644 355.18 284.834 352.518C290.876 349.921 297.182 348.436 303.65 347.31C306.786 346.764 309.95 346.304 313.14 345.84L313.442 345.796C316.729 345.317 320.044 344.832 323.354 344.245Z" stroke="url(#paint28_linear)" stroke-width="2"/>
<defs>
<linearGradient id="paint0_linear" x1="110.739" y1="254.889" x2="252.725" y2="85.6759" gradientUnits="userSpaceOnUse">
<stop/>
<stop offset="0.713542" stop-color="#FF0037"/>
</linearGradient>
<linearGradient id="paint1_linear" x1="118.221" y1="246.723" x2="274.415" y2="90.529" gradientUnits="userSpaceOnUse">
<stop/>
<stop offset="0.713542" stop-color="#FF0037"/>
</linearGradient>
<linearGradient id="paint2_linear" x1="126.387" y1="239.24" x2="295.6" y2="97.2541" gradientUnits="userSpaceOnUse">
<stop/>
<stop offset="0.713542" stop-color="#FF0037"/>
</linearGradient>
<linearGradient id="paint3_linear" x1="135.174" y1="232.498" x2="316.118" y2="105.8" gradientUnits="userSpaceOnUse">
<stop/>
<stop offset="0.713542" stop-color="#FF0037"/>
</linearGradient>
<linearGradient id="paint4_linear" x1="144.515" y1="226.547" x2="335.812" y2="116.101" gradientUnits="userSpaceOnUse">
<stop/>
<stop offset="0.713542" stop-color="#FF0037"/>
</linearGradient>
<linearGradient id="paint5_linear" x1="154.339" y1="221.433" x2="354.535" y2="128.08" gradientUnits="userSpaceOnUse">
<stop/>
<stop offset="0.713542" stop-color="#FF0037"/>
</linearGradient>
<linearGradient id="paint6_linear" x1="164.571" y1="217.195" x2="372.141" y2="141.645" gradientUnits="userSpaceOnUse">
<stop/>
<stop offset="0.713542" stop-color="#FF0037"/>
</linearGradient>
<linearGradient id="paint7_linear" x1="175.134" y1="213.864" x2="388.499" y2="156.693" gradientUnits="userSpaceOnUse">
<stop/>
<stop offset="0.713542" stop-color="#FF0037"/>
</linearGradient>
<linearGradient id="paint8_linear" x1="185.947" y1="211.467" x2="403.483" y2="173.11" gradientUnits="userSpaceOnUse">
<stop/>
<stop offset="0.713542" stop-color="#FF0037"/>
</linearGradient>
<linearGradient id="paint9_linear" x1="196.928" y1="210.021" x2="416.979" y2="190.769" gradientUnits="userSpaceOnUse">
<stop/>
<stop offset="0.713542" stop-color="#FF0037"/>
</linearGradient>
<linearGradient id="paint10_linear" x1="207.993" y1="209.538" x2="428.884" y2="209.538" gradientUnits="userSpaceOnUse">
<stop/>
<stop offset="0.713542" stop-color="#FF0037"/>
</linearGradient>
<linearGradient id="paint11_linear" x1="219.058" y1="210.021" x2="439.109" y2="229.273" gradientUnits="userSpaceOnUse">
<stop/>
<stop offset="0.713542" stop-color="#FF0037"/>
</linearGradient>
<linearGradient id="paint12_linear" x1="230.039" y1="211.467" x2="447.574" y2="249.825" gradientUnits="userSpaceOnUse">
<stop/>
<stop offset="0.713542" stop-color="#FF0037"/>
</linearGradient>
<linearGradient id="paint13_linear" x1="240.851" y1="213.864" x2="454.216" y2="271.035" gradientUnits="userSpaceOnUse">
<stop/>
<stop offset="0.713542" stop-color="#FF0037"/>
</linearGradient>
<linearGradient id="paint14_linear" x1="251.414" y1="217.195" x2="458.985" y2="292.744" gradientUnits="userSpaceOnUse">
<stop/>
<stop offset="0.713542" stop-color="#FF0037"/>
</linearGradient>
<linearGradient id="paint15_linear" x1="261.647" y1="221.433" x2="461.843" y2="314.786" gradientUnits="userSpaceOnUse">
<stop/>
<stop offset="0.713542" stop-color="#FF0037"/>
</linearGradient>
<linearGradient id="paint16_linear" x1="271.471" y1="226.547" x2="462.769" y2="336.993" gradientUnits="userSpaceOnUse">
<stop/>
<stop offset="0.713542" stop-color="#FF0037"/>
</linearGradient>
<linearGradient id="paint17_linear" x1="280.812" y1="232.498" x2="461.756" y2="359.196" gradientUnits="userSpaceOnUse">
<stop/>
<stop offset="0.713542" stop-color="#FF0037"/>
</linearGradient>
<linearGradient id="paint18_linear" x1="289.599" y1="239.24" x2="458.811" y2="381.227" gradientUnits="userSpaceOnUse">
<stop/>
<stop offset="0.713542" stop-color="#FF0037"/>
</linearGradient>
<linearGradient id="paint19_linear" x1="297.764" y1="246.723" x2="453.958" y2="402.917" gradientUnits="userSpaceOnUse">
<stop/>
<stop offset="0.713542" stop-color="#FF0037"/>
</linearGradient>
<linearGradient id="paint20_linear" x1="305.247" y1="254.889" x2="447.233" y2="424.101" gradientUnits="userSpaceOnUse">
<stop/>
<stop offset="0.713542" stop-color="#FF0037"/>
</linearGradient>
<linearGradient id="paint21_linear" x1="311.989" y1="263.676" x2="438.687" y2="444.619" gradientUnits="userSpaceOnUse">
<stop/>
<stop offset="0.713542" stop-color="#FF0037"/>
</linearGradient>
<linearGradient id="paint22_linear" x1="317.94" y1="273.016" x2="428.386" y2="464.314" gradientUnits="userSpaceOnUse">
<stop/>
<stop offset="0.713542" stop-color="#FF0037"/>
</linearGradient>
<linearGradient id="paint23_linear" x1="323.054" y1="282.841" x2="416.407" y2="483.036" gradientUnits="userSpaceOnUse">
<stop/>
<stop offset="0.713542" stop-color="#FF0037"/>
</linearGradient>
<linearGradient id="paint24_linear" x1="327.293" y1="293.073" x2="402.842" y2="500.643" gradientUnits="userSpaceOnUse">
<stop/>
<stop offset="0.713542" stop-color="#FF0037"/>
</linearGradient>
<linearGradient id="paint25_linear" x1="330.623" y1="303.636" x2="387.794" y2="517.001" gradientUnits="userSpaceOnUse">
<stop/>
<stop offset="0.713542" stop-color="#FF0037"/>
</linearGradient>
<linearGradient id="paint26_linear" x1="333.02" y1="314.449" x2="371.378" y2="531.985" gradientUnits="userSpaceOnUse">
<stop/>
<stop offset="0.713542" stop-color="#FF0037"/>
</linearGradient>
<linearGradient id="paint27_linear" x1="334.466" y1="325.43" x2="353.718" y2="545.481" gradientUnits="userSpaceOnUse">
<stop/>
<stop offset="0.713542" stop-color="#FF0037"/>
</linearGradient>
<linearGradient id="paint28_linear" x1="334.949" y1="336.495" x2="334.949" y2="557.386" gradientUnits="userSpaceOnUse">
<stop/>
<stop offset="0.713542" stop-color="#FF0037"/>
</linearGradient>
</defs>
</svg>
